<svg width="20" height="20" viewBox="0 0 20 20" fill="none" xmlns="http://www.w3.org/2000/svg">
<path fill-rule="evenodd" clip-rule="evenodd" d="M6.00017 6.673C6.00017 5.632 6.35217 4.849 6.87417 4.328C7.39817 3.805 8.13917 3.5 9.00017 3.5C9.86017 3.5 10.6022 3.805 11.1262 4.328C11.6482 4.849 12.0002 5.632 12.0002 6.673C11.9967 7.65591 11.6216 8.60113 10.9502 9.319C10.3212 9.997 9.57017 10.333 9.00017 10.333C8.43017 10.333 7.67917 9.997 7.05017 9.319C6.37876 8.60113 6.00367 7.65591 6.00017 6.673ZM9.00017 2C7.77817 2 6.64417 2.438 5.81417 3.267C4.98017 4.1 4.50017 5.277 4.50017 6.673C4.50196 7.4639 4.67766 8.24474 5.01482 8.96018C5.35197 9.67562 5.84234 10.3082 6.45117 10.813C5.80635 10.969 5.17885 11.1894 4.57817 11.471C3.11417 12.164 1.76717 13.299 1.13017 15.028C0.830166 15.839 1.06317 16.618 1.55317 17.16C2.02817 17.686 2.74617 18 3.50017 18H12.2502C12.4491 18 12.6398 17.921 12.7805 17.7803C12.9211 17.6397 13.0002 17.4489 13.0002 17.25C13.0002 17.0511 12.9211 16.8603 12.7805 16.7197C12.6398 16.579 12.4491 16.5 12.2502 16.5H3.50017C3.15017 16.5 2.84317 16.35 2.66617 16.154C2.50317 15.974 2.45417 15.772 2.53717 15.547C3.00017 14.291 3.99617 13.407 5.22017 12.827C6.44917 12.246 7.85317 12 9.00017 12C9.90717 12 10.9812 12.154 12.0042 12.51C12.1908 12.5709 12.3938 12.5563 12.5698 12.4692C12.7457 12.382 12.8804 12.2294 12.9451 12.0441C13.0097 11.8587 12.9992 11.6554 12.9156 11.4778C12.832 11.3002 12.6822 11.1624 12.4982 11.094C12.1832 10.984 11.8662 10.891 11.5482 10.814C12.157 10.3092 12.6474 9.67662 12.9845 8.96118C13.3217 8.24574 13.4974 7.4649 13.4992 6.674C13.5002 5.277 13.0192 4.099 12.1862 3.267C11.3562 2.438 10.2232 2 9.00017 2ZM15.5002 11C15.6991 11 15.8898 11.079 16.0305 11.2197C16.1711 11.3603 16.2502 11.5511 16.2502 11.75V13.75H18.2502C18.4491 13.75 18.6398 13.829 18.7805 13.9697C18.9211 14.1103 19.0002 14.3011 19.0002 14.5C19.0002 14.6989 18.9211 14.8897 18.7805 15.0303C18.6398 15.171 18.4491 15.25 18.2502 15.25H16.2502V17.25C16.2502 17.4489 16.1711 17.6397 16.0305 17.7803C15.8898 17.921 15.6991 18 15.5002 18C15.3013 18 15.1105 17.921 14.9698 17.7803C14.8292 17.6397 14.7502 17.4489 14.7502 17.25V15.25H12.7502C12.5513 15.25 12.3605 15.171 12.2198 15.0303C12.0792 14.8897 12.0002 14.6989 12.0002 14.5C12.0002 14.3011 12.0792 14.1103 12.2198 13.9697C12.3605 13.829 12.5513 13.75 12.7502 13.75H14.7502V11.75C14.7502 11.5511 14.8292 11.3603 14.9698 11.2197C15.1105 11.079 15.3013 11 15.5002 11Z" fill="black" style="fill:black;fill-opacity:1;"/>
</svg>
