<svg width="20" height="20" viewBox="0 0 20 20" fill="none" xmlns="http://www.w3.org/2000/svg">
<path fill-rule="evenodd" clip-rule="evenodd" d="M4 1C4.19891 1 4.38968 1.07902 4.53033 1.21967C4.67098 1.36032 4.75 1.55109 4.75 1.75V3.25H6.25C6.44891 3.25 6.63968 3.32902 6.78033 3.46967C6.92098 3.61032 7 3.80109 7 4C7 4.19891 6.92098 4.38968 6.78033 4.53033C6.63968 4.67098 6.44891 4.75 6.25 4.75H4.75V6.25C4.75 6.44891 4.67098 6.63968 4.53033 6.78033C4.38968 6.92098 4.19891 7 4 7C3.80109 7 3.61032 6.92098 3.46967 6.78033C3.32902 6.63968 3.25 6.44891 3.25 6.25V4.75H1.75C1.55109 4.75 1.36032 4.67098 1.21967 4.53033C1.07902 4.38968 1 4.19891 1 4C1 3.80109 1.07902 3.61032 1.21967 3.46967C1.36032 3.32902 1.55109 3.25 1.75 3.25H3.25V1.75C3.25 1.55109 3.32902 1.36032 3.46967 1.21967C3.61032 1.07902 3.80109 1 4 1ZM9.25 1.5C9.05109 1.5 8.86032 1.57902 8.71967 1.71967C8.57902 1.86032 8.5 2.05109 8.5 2.25C8.5 2.44891 8.57902 2.63968 8.71967 2.78033C8.86032 2.92098 9.05109 3 9.25 3H14.75C15.3467 3 15.919 3.23705 16.341 3.65901C16.7629 4.08097 17 4.65326 17 5.25V10.75H12.25C11.8522 10.75 11.4706 10.908 11.1893 11.1893C10.908 11.4706 10.75 11.8522 10.75 12.25V17H5.25C4.65326 17 4.08097 16.7629 3.65901 16.341C3.23705 15.919 3 15.3467 3 14.75V9.25C3 9.05109 2.92098 8.86032 2.78033 8.71967C2.63968 8.57902 2.44891 8.5 2.25 8.5C2.05109 8.5 1.86032 8.57902 1.71967 8.71967C1.57902 8.86032 1.5 9.05109 1.5 9.25V14.75C1.5 15.2425 1.597 15.7301 1.78545 16.1851C1.97391 16.64 2.25013 17.0534 2.59835 17.4017C2.94657 17.7499 3.35997 18.0261 3.81494 18.2145C4.26991 18.403 4.75754 18.5 5.25 18.5H10.986C11.715 18.5 12.414 18.21 12.93 17.695L17.695 12.93C18.2104 12.4143 18.5 11.7151 18.5 10.986V5.25C18.5 4.75754 18.403 4.26991 18.2145 3.81494C18.0261 3.35997 17.7499 2.94657 17.4017 2.59835C17.0534 2.25013 16.64 1.97391 16.1851 1.78545C15.7301 1.597 15.2425 1.5 14.75 1.5H9.25ZM12.25 16.253L16.253 12.25H12.25V16.253Z" fill="black" style="fill:black;fill-opacity:1;"/>
</svg>
