<svg width="20" height="20" viewBox="0 0 20 20" fill="none" xmlns="http://www.w3.org/2000/svg">
<path fill-rule="evenodd" clip-rule="evenodd" d="M15.5 1C15.6989 1 15.8896 1.07902 16.0303 1.21967C16.1709 1.36032 16.25 1.55109 16.25 1.75V3.75H18.25C18.4489 3.75 18.6396 3.82902 18.7803 3.96967C18.9209 4.11032 19 4.30109 19 4.5C19 4.69891 18.9209 4.88968 18.7803 5.03033C18.6396 5.17098 18.4489 5.25 18.25 5.25H16.25V7.25C16.25 7.44891 16.1709 7.63968 16.0303 7.78033C15.8896 7.92098 15.6989 8 15.5 8C15.3011 8 15.1103 7.92098 14.9696 7.78033C14.829 7.63968 14.75 7.44891 14.75 7.25V5.25H12.75C12.5511 5.25 12.3603 5.17098 12.2196 5.03033C12.079 4.88968 12 4.69891 12 4.5C12 4.30109 12.079 4.11032 12.2196 3.96967C12.3603 3.82902 12.5511 3.75 12.75 3.75H14.75V1.75C14.75 1.55109 14.829 1.36032 14.9696 1.21967C15.1103 1.07902 15.3011 1 15.5 1ZM2.49997 11C2.49994 10.0902 2.69089 9.19056 3.06048 8.35923C3.43007 7.5279 3.97006 6.78342 4.64552 6.17394C5.32098 5.56446 6.11686 5.10357 6.98167 4.82108C7.84649 4.53858 8.76097 4.44078 9.66597 4.534C9.86395 4.55416 10.0618 4.49484 10.2161 4.3691C10.3703 4.24335 10.4683 4.06148 10.4885 3.8635C10.5086 3.66552 10.4493 3.46763 10.3236 3.31339C10.1978 3.15914 10.0159 3.06116 9.81797 3.041C8.17447 2.87208 6.51899 3.21613 5.0789 4.02592C3.63881 4.8357 2.48476 6.07148 1.77526 7.56353C1.06575 9.05558 0.835598 10.7307 1.11641 12.3588C1.39722 13.9869 2.17522 15.4882 3.34355 16.6563C4.51188 17.8245 6.01322 18.6023 7.64138 18.8829C9.26953 19.1634 10.9446 18.9331 12.4366 18.2233C13.9285 17.5136 15.1641 16.3594 15.9737 14.9192C16.7833 13.479 17.1271 11.8235 16.958 10.18C16.9343 9.98502 16.8351 9.80709 16.6817 9.68447C16.5282 9.56184 16.3328 9.5043 16.1374 9.52421C15.942 9.54412 15.7622 9.63988 15.6367 9.79093C15.5111 9.94198 15.4498 10.1362 15.466 10.332C15.4887 10.5539 15.5001 10.7769 15.5 11C15.5 12.7239 14.8151 14.3772 13.5962 15.5962C12.3772 16.8152 10.7239 17.5 8.99997 17.5C7.27606 17.5 5.62276 16.8152 4.40377 15.5962C3.18479 14.3772 2.49997 12.7239 2.49997 11ZM6.74997 10.5C7.08149 10.5 7.39943 10.3683 7.63385 10.1339C7.86827 9.89946 7.99997 9.58152 7.99997 9.25C7.99997 8.91848 7.86827 8.60054 7.63385 8.36612C7.39943 8.1317 7.08149 8 6.74997 8C6.41845 8 6.1005 8.1317 5.86608 8.36612C5.63166 8.60054 5.49997 8.91848 5.49997 9.25C5.49997 9.58152 5.63166 9.89946 5.86608 10.1339C6.1005 10.3683 6.41845 10.5 6.74997 10.5ZM11.25 10.5C11.5815 10.5 11.8994 10.3683 12.1338 10.1339C12.3683 9.89946 12.5 9.58152 12.5 9.25C12.5 8.91848 12.3683 8.60054 12.1338 8.36612C11.8994 8.1317 11.5815 8 11.25 8C10.9184 8 10.6005 8.1317 10.3661 8.36612C10.1317 8.60054 9.99997 8.91848 9.99997 9.25C9.99997 9.58152 10.1317 9.89946 10.3661 10.1339C10.6005 10.3683 10.9184 10.5 11.25 10.5ZM8.99997 15C10.277 15 11.553 14.276 12.06 12.827C12.208 12.401 11.851 12 11.4 12H6.59997C6.14797 12 5.79197 12.4 5.93997 12.827C6.44797 14.276 7.72397 15 8.99997 15Z" fill="black" style="fill:black;fill-opacity:1;"/>
</svg>
