<svg width="20" height="20" viewBox="0 0 20 20" fill="none" xmlns="http://www.w3.org/2000/svg">
<path fill-rule="evenodd" clip-rule="evenodd" d="M10.75 3.75C10.75 3.55109 10.6709 3.36032 10.5303 3.21967C10.3896 3.07902 10.1989 3 9.99996 3C9.80105 3 9.61028 3.07902 9.46963 3.21967C9.32898 3.36032 9.24996 3.55109 9.24996 3.75V14.378L5.29296 10.232C5.15558 10.088 4.96661 10.0044 4.76764 9.99976C4.56866 9.99507 4.37597 10.0696 4.23196 10.207C4.08795 10.3444 4.00441 10.5333 3.99972 10.7323C3.99503 10.9313 4.06958 11.124 4.20696 11.268L9.45696 16.768C9.52699 16.8414 9.61118 16.8998 9.70442 16.9397C9.79767 16.9796 9.89804 17.0001 9.99946 17.0001C10.1009 17.0001 10.2013 16.9796 10.2945 16.9397C10.3877 16.8998 10.4719 16.8414 10.542 16.768L15.792 11.268C15.86 11.1968 15.9133 11.1128 15.9489 11.021C15.9845 10.9291 16.0016 10.8312 15.9993 10.7327C15.9971 10.6342 15.9754 10.5371 15.9356 10.447C15.8958 10.3569 15.8387 10.2755 15.7675 10.2075C15.6962 10.1395 15.6123 10.0861 15.5204 10.0506C15.4286 10.015 15.3306 9.99784 15.2321 10.0001C15.1337 10.0024 15.0366 10.024 14.9465 10.0638C14.8564 10.1036 14.775 10.1608 14.707 10.232L10.75 14.378V3.75Z" fill="black" style="fill:black;fill-opacity:1;"/>
</svg>
