<svg width="20" height="20" viewBox="0 0 20 20" fill="none" xmlns="http://www.w3.org/2000/svg">
<path fill-rule="evenodd" clip-rule="evenodd" d="M10 2C9.07174 2 8.1815 2.36875 7.52513 3.02513C6.86875 3.6815 6.5 4.57174 6.5 5.5V8.5C6.5 8.95963 6.59053 9.41475 6.76642 9.83939C6.94231 10.264 7.20012 10.6499 7.52513 10.9749C7.85013 11.2999 8.23597 11.5577 8.66061 11.7336C9.08525 11.9095 9.54037 12 10 12C10.4596 12 10.9148 11.9095 11.3394 11.7336C11.764 11.5577 12.1499 11.2999 12.4749 10.9749C12.7999 10.6499 13.0577 10.264 13.2336 9.83939C13.4095 9.41475 13.5 8.95963 13.5 8.5V5.5C13.5 4.57174 13.1313 3.6815 12.4749 3.02513C11.8185 2.36875 10.9283 2 10 2ZM8 5.5C8 4.96957 8.21071 4.46086 8.58579 4.08579C8.96086 3.71071 9.46957 3.5 10 3.5C10.5304 3.5 11.0391 3.71071 11.4142 4.08579C11.7893 4.46086 12 4.96957 12 5.5V8.5C12 9.03043 11.7893 9.53914 11.4142 9.91421C11.0391 10.2893 10.5304 10.5 10 10.5C9.46957 10.5 8.96086 10.2893 8.58579 9.91421C8.21071 9.53914 8 9.03043 8 8.5V5.5ZM5 8.25C5 8.05109 4.92098 7.86032 4.78033 7.71967C4.63968 7.57902 4.44891 7.5 4.25 7.5C4.05109 7.5 3.86032 7.57902 3.71967 7.71967C3.57902 7.86032 3.5 8.05109 3.5 8.25V8.5C3.50012 10.094 4.08589 11.6325 5.14599 12.8229C6.2061 14.0134 7.66663 14.7729 9.25 14.957V16.5H7.75C7.55109 16.5 7.36032 16.579 7.21967 16.7197C7.07902 16.8603 7 17.0511 7 17.25C7 17.4489 7.07902 17.6397 7.21967 17.7803C7.36032 17.921 7.55109 18 7.75 18H12.25C12.4489 18 12.6397 17.921 12.7803 17.7803C12.921 17.6397 13 17.4489 13 17.25C13 17.0511 12.921 16.8603 12.7803 16.7197C12.6397 16.579 12.4489 16.5 12.25 16.5H10.75V14.957C12.3334 14.7729 13.7939 14.0134 14.854 12.8229C15.9141 11.6325 16.4999 10.094 16.5 8.5V8.25C16.5 8.05109 16.421 7.86032 16.2803 7.71967C16.1397 7.57902 15.9489 7.5 15.75 7.5C15.5511 7.5 15.3603 7.57902 15.2197 7.71967C15.079 7.86032 15 8.05109 15 8.25V8.5C15 9.82608 14.4732 11.0979 13.5355 12.0355C12.5979 12.9732 11.3261 13.5 10 13.5C8.67392 13.5 7.40215 12.9732 6.46447 12.0355C5.52678 11.0979 5 9.82608 5 8.5V8.25Z" fill="black" style="fill:black;fill-opacity:1;"/>
</svg>
