<svg width="20" height="20" viewBox="0 0 20 20" fill="none" xmlns="http://www.w3.org/2000/svg">
<path fill-rule="evenodd" clip-rule="evenodd" d="M3.5 2.75C3.5 2.55109 3.42098 2.36032 3.28033 2.21967C3.13968 2.07902 2.94891 2 2.75 2C2.55109 2 2.36032 2.07902 2.21967 2.21967C2.07902 2.36032 2 2.55109 2 2.75V17.25C2 17.4489 2.07902 17.6397 2.21967 17.7803C2.36032 17.921 2.55109 18 2.75 18C2.94891 18 3.13968 17.921 3.28033 17.7803C3.42098 17.6397 3.5 17.4489 3.5 17.25V2.75ZM6.75 3C6.55109 3 6.36032 3.07902 6.21967 3.21967C6.07902 3.36032 6 3.55109 6 3.75C6 3.94891 6.07902 4.13968 6.21967 4.28033C6.36032 4.42098 6.55109 4.5 6.75 4.5H15.25C15.4489 4.5 15.6397 4.42098 15.7803 4.28033C15.921 4.13968 16 3.94891 16 3.75C16 3.55109 15.921 3.36032 15.7803 3.21967C15.6397 3.07902 15.4489 3 15.25 3H6.75ZM6 10.25C6 10.0511 6.07902 9.86032 6.21967 9.71967C6.36032 9.57902 6.55109 9.5 6.75 9.5H17.25C17.4489 9.5 17.6397 9.57902 17.7803 9.71967C17.921 9.86032 18 10.0511 18 10.25C18 10.4489 17.921 10.6397 17.7803 10.7803C17.6397 10.921 17.4489 11 17.25 11H6.75C6.55109 11 6.36032 10.921 6.21967 10.7803C6.07902 10.6397 6 10.4489 6 10.25ZM6.75 15.5C6.55109 15.5 6.36032 15.579 6.21967 15.7197C6.07902 15.8603 6 16.0511 6 16.25C6 16.4489 6.07902 16.6397 6.21967 16.7803C6.36032 16.921 6.55109 17 6.75 17H14.25C14.4489 17 14.6397 16.921 14.7803 16.7803C14.921 16.6397 15 16.4489 15 16.25C15 16.0511 14.921 15.8603 14.7803 15.7197C14.6397 15.579 14.4489 15.5 14.25 15.5H6.75Z" fill="black" style="fill:black;fill-opacity:1;"/>
</svg>
