<svg width="20" height="20" viewBox="0 0 20 20" fill="none" xmlns="http://www.w3.org/2000/svg">
<path fill-rule="evenodd" clip-rule="evenodd" d="M4 2.75C4 2.55109 4.07902 2.36032 4.21967 2.21967C4.36032 2.07902 4.55109 2 4.75 2H11.093C12.0498 2.00023 12.9733 2.35148 13.6884 2.98717C14.4036 3.62285 14.8606 4.4988 14.973 5.449C14.9936 5.57828 15.0026 5.70912 15 5.84L15.001 5.907C15.0017 6.51135 14.8619 7.10758 14.5927 7.64868C14.3236 8.18978 13.9324 8.66094 13.45 9.025C14.4716 9.39681 15.3297 10.1165 15.8737 11.0578C16.4177 11.9991 16.6129 13.1019 16.425 14.1728C16.237 15.2436 15.6781 16.2141 14.8461 16.9139C14.0141 17.6137 12.9622 17.9983 11.875 18H4.75C4.55109 18 4.36032 17.921 4.21967 17.7803C4.07902 17.6397 4 17.4489 4 17.25V9.5C3.99988 9.42615 4.01066 9.35269 4.032 9.282C4.01076 9.21163 3.99998 9.13851 4 9.065V2.75ZM6.5 8.315H10.093C10.3763 8.315 10.6569 8.25919 10.9186 8.15077C11.1804 8.04235 11.4182 7.88343 11.6186 7.68308C11.8189 7.48274 11.9778 7.2449 12.0863 6.98314C12.1947 6.72138 12.2505 6.44083 12.2505 6.1575C12.2505 5.87417 12.1947 5.59362 12.0863 5.33186C11.9778 5.0701 11.8189 4.83226 11.6186 4.63192C11.4182 4.43157 11.1804 4.27265 10.9186 4.16423C10.6569 4.05581 10.3763 4 10.093 4H6.5V8.315ZM10.75 10.25H6.5V15.75H10.75C11.4793 15.75 12.1788 15.4603 12.6945 14.9445C13.2103 14.4288 13.5 13.7293 13.5 13C13.5 12.2707 13.2103 11.5712 12.6945 11.0555C12.1788 10.5397 11.4793 10.25 10.75 10.25Z" fill="black" style="fill:black;fill-opacity:1;"/>
</svg>
