<svg width="20" height="20" viewBox="0 0 20 20" fill="none" xmlns="http://www.w3.org/2000/svg">
<path fill-rule="evenodd" clip-rule="evenodd" d="M4.25 4.25C4.25 3.52065 4.53973 2.82118 5.05546 2.30546C5.57118 1.78973 6.27065 1.5 7 1.5H13C13.7293 1.5 14.4288 1.78973 14.9445 2.30546C15.4603 2.82118 15.75 3.52065 15.75 4.25V17.043C15.75 18.157 14.404 18.714 13.616 17.927L10 14.31L6.384 17.926C5.596 18.713 4.25 18.156 4.25 17.042V4.25ZM7 3C6.31 3 5.75 3.56 5.75 4.25V16.44L9.399 12.79C9.5584 12.6306 9.77459 12.5411 10 12.5411C10.2254 12.5411 10.4416 12.6306 10.601 12.79L14.25 16.44V4.25C14.25 3.56 13.69 3 13 3H7Z" fill="black" style="fill:black;fill-opacity:1;"/>
</svg>
