<svg width="20" height="20" viewBox="0 0 20 20" fill="none" xmlns="http://www.w3.org/2000/svg">
<path fill-rule="evenodd" clip-rule="evenodd" d="M4 3C4 3.26522 3.89464 3.51957 3.70711 3.70711C3.51957 3.89464 3.26522 4 3 4C2.73478 4 2.48043 3.89464 2.29289 3.70711C2.10536 3.51957 2 3.26522 2 3C2 2.73478 2.10536 2.48043 2.29289 2.29289C2.48043 2.10536 2.73478 2 3 2C3.26522 2 3.51957 2.10536 3.70711 2.29289C3.89464 2.48043 4 2.73478 4 3ZM7 3C7 2.80109 7.07902 2.61032 7.21967 2.46967C7.36032 2.32902 7.55109 2.25 7.75 2.25H17.75C17.9489 2.25 18.1397 2.32902 18.2803 2.46967C18.421 2.61032 18.5 2.80109 18.5 3C18.5 3.19891 18.421 3.38968 18.2803 3.53033C18.1397 3.67098 17.9489 3.75 17.75 3.75H7.75C7.55109 3.75 7.36032 3.67098 7.21967 3.53033C7.07902 3.38968 7 3.19891 7 3ZM7.75 9.25C7.55109 9.25 7.36032 9.32902 7.21967 9.46967C7.07902 9.61032 7 9.80109 7 10C7 10.1989 7.07902 10.3897 7.21967 10.5303C7.36032 10.671 7.55109 10.75 7.75 10.75H17.75C17.9489 10.75 18.1397 10.671 18.2803 10.5303C18.421 10.3897 18.5 10.1989 18.5 10C18.5 9.80109 18.421 9.61032 18.2803 9.46967C18.1397 9.32902 17.9489 9.25 17.75 9.25H7.75ZM7.75 16.25C7.55109 16.25 7.36032 16.329 7.21967 16.4697C7.07902 16.6103 7 16.8011 7 17C7 17.1989 7.07902 17.3897 7.21967 17.5303C7.36032 17.671 7.55109 17.75 7.75 17.75H17.75C17.9489 17.75 18.1397 17.671 18.2803 17.5303C18.421 17.3897 18.5 17.1989 18.5 17C18.5 16.8011 18.421 16.6103 18.2803 16.4697C18.1397 16.329 17.9489 16.25 17.75 16.25H7.75ZM3 11C3.26522 11 3.51957 10.8946 3.70711 10.7071C3.89464 10.5196 4 10.2652 4 10C4 9.73478 3.89464 9.48043 3.70711 9.29289C3.51957 9.10536 3.26522 9 3 9C2.73478 9 2.48043 9.10536 2.29289 9.29289C2.10536 9.48043 2 9.73478 2 10C2 10.2652 2.10536 10.5196 2.29289 10.7071C2.48043 10.8946 2.73478 11 3 11ZM3 18C3.26522 18 3.51957 17.8946 3.70711 17.7071C3.89464 17.5196 4 17.2652 4 17C4 16.7348 3.89464 16.4804 3.70711 16.2929C3.51957 16.1054 3.26522 16 3 16C2.73478 16 2.48043 16.1054 2.29289 16.2929C2.10536 16.4804 2 16.7348 2 17C2 17.2652 2.10536 17.5196 2.29289 17.7071C2.48043 17.8946 2.73478 18 3 18Z" fill="black" style="fill:black;fill-opacity:1;"/>
</svg>
