<svg width="20" height="20" viewBox="0 0 20 20" fill="none" xmlns="http://www.w3.org/2000/svg">
<path fill-rule="evenodd" clip-rule="evenodd" d="M4.836 3C4.34906 3 3.88207 3.19344 3.53775 3.53775C3.19344 3.88207 3 4.34906 3 4.836V12.164C3 13.064 3.646 13.811 4.5 13.969V7.836C4.5 7.39791 4.58629 6.96411 4.75394 6.55937C4.92159 6.15463 5.16732 5.78687 5.47709 5.47709C6.10271 4.85147 6.95124 4.5 7.836 4.5H13.969C13.8904 4.07868 13.6669 3.69811 13.3373 3.42417C13.0076 3.15024 12.5926 3.00019 12.164 3H4.836ZM1.5 12.164C1.50035 12.993 1.80929 13.7923 2.36664 14.406C2.92399 15.0197 3.68983 15.404 4.515 15.484C4.59478 16.3095 4.97911 17.0757 5.59307 17.6333C6.20704 18.1909 7.00664 18.4999 7.836 18.5H11.804C12.534 18.5 13.234 18.21 13.749 17.695L17.695 13.749C17.9503 13.4935 18.1528 13.1903 18.291 12.8566C18.4291 12.5228 18.5001 12.1652 18.5 11.804V7.836C18.4996 7.00696 18.1907 6.20774 17.6334 5.59402C17.076 4.98029 16.3102 4.596 15.485 4.516C15.4052 3.69048 15.0209 2.92425 14.4069 2.36668C13.793 1.8091 12.9934 1.50013 12.164 1.5H4.836C4.39791 1.5 3.96411 1.58629 3.55937 1.75394C3.15463 1.92159 2.78687 2.16732 2.47709 2.47709C1.85147 3.10271 1.5 3.95124 1.5 4.836V12.164ZM7.836 6C7.34906 6 6.88207 6.19344 6.53775 6.53775C6.19344 6.88207 6 7.34906 6 7.836V15.164C6 16.178 6.822 17 7.836 17H11.5V13C11.5 12.6022 11.658 12.2206 11.9393 11.9393C12.2206 11.658 12.6022 11.5 13 11.5H17V7.836C17 7.34906 16.8066 6.88207 16.4622 6.53775C16.1179 6.19344 15.6509 6 15.164 6H7.836ZM16.322 13H13V16.322L16.322 13Z" fill="black" style="fill:black;fill-opacity:1;"/>
</svg>
