<svg width="20" height="20" viewBox="0 0 20 20" fill="none" xmlns="http://www.w3.org/2000/svg">
<path fill-rule="evenodd" clip-rule="evenodd" d="M5.71983 7.47C5.86045 7.32955 6.05108 7.25066 6.24983 7.25066C6.44858 7.25066 6.6392 7.32955 6.77983 7.47L9.99983 10.69L13.2198 7.47C13.2885 7.39631 13.3713 7.33721 13.4633 7.29622C13.5553 7.25523 13.6546 7.23319 13.7553 7.23141C13.856 7.22963 13.956 7.24816 14.0494 7.28588C14.1428 7.3236 14.2276 7.37974 14.2989 7.45096C14.3701 7.52218 14.4262 7.60701 14.464 7.7004C14.5017 7.79379 14.5202 7.89382 14.5184 7.99452C14.5166 8.09523 14.4946 8.19454 14.4536 8.28654C14.4126 8.37854 14.3535 8.46134 14.2798 8.53L10.5298 12.28C10.3892 12.4205 10.1986 12.4993 9.99983 12.4993C9.80108 12.4993 9.61045 12.4205 9.46983 12.28L5.71983 8.53C5.57938 8.38938 5.50049 8.19875 5.50049 8C5.50049 7.80125 5.57938 7.61063 5.71983 7.47Z" fill="black" style="fill:black;fill-opacity:1;"/>
</svg>
