<svg width="20" height="20" viewBox="0 0 20 20" fill="none" xmlns="http://www.w3.org/2000/svg">
<path fill-rule="evenodd" clip-rule="evenodd" d="M2.5 10C2.5 8.01088 3.29018 6.10322 4.6967 4.6967C6.10322 3.29018 8.01088 2.5 10 2.5C11.9891 2.5 13.8968 3.29018 15.3033 4.6967C16.7098 6.10322 17.5 8.01088 17.5 10C17.5 11.9891 16.7098 13.8968 15.3033 15.3033C13.8968 16.7098 11.9891 17.5 10 17.5C8.01088 17.5 6.10322 16.7098 4.6967 15.3033C3.29018 13.8968 2.5 11.9891 2.5 10ZM10 1C7.61305 1 5.32387 1.94821 3.63604 3.63604C1.94821 5.32387 1 7.61305 1 10C1 12.3869 1.94821 14.6761 3.63604 16.364C5.32387 18.0518 7.61305 19 10 19C12.3869 19 14.6761 18.0518 16.364 16.364C18.0518 14.6761 19 12.3869 19 10C19 7.61305 18.0518 5.32387 16.364 3.63604C14.6761 1.94821 12.3869 1 10 1ZM10.75 5.75C10.75 5.55109 10.671 5.36032 10.5303 5.21967C10.3897 5.07902 10.1989 5 10 5C9.80109 5 9.61032 5.07902 9.46967 5.21967C9.32902 5.36032 9.25 5.55109 9.25 5.75V11.25H13.75C13.9489 11.25 14.1397 11.171 14.2803 11.0303C14.421 10.8897 14.5 10.6989 14.5 10.5C14.5 10.3011 14.421 10.1103 14.2803 9.96967C14.1397 9.82902 13.9489 9.75 13.75 9.75H10.75V5.75Z" fill="black" style="fill:black;fill-opacity:1;"/>
</svg>
