<svg width="20" height="20" viewBox="0 0 20 20" fill="none" xmlns="http://www.w3.org/2000/svg">
<path fill-rule="evenodd" clip-rule="evenodd" d="M16.5298 3.47001C16.6703 3.61064 16.7492 3.80126 16.7492 4.00001C16.7492 4.19876 16.6703 4.38939 16.5298 4.53001L11.0598 10L16.5298 15.47C16.6623 15.6122 16.7344 15.8002 16.731 15.9945C16.7276 16.1888 16.6489 16.3742 16.5115 16.5116C16.3741 16.649 16.1887 16.7278 15.9944 16.7312C15.8001 16.7346 15.612 16.6625 15.4698 16.53L9.99985 11.06L4.52985 16.53C4.38767 16.6625 4.19963 16.7346 4.00532 16.7312C3.81102 16.7278 3.62564 16.649 3.48822 16.5116C3.35081 16.3742 3.2721 16.1888 3.26867 15.9945C3.26524 15.8002 3.33737 15.6122 3.46985 15.47L8.93985 10L3.46985 4.53001C3.33737 4.38784 3.26524 4.19979 3.26867 4.00549C3.2721 3.81119 3.35081 3.6258 3.48822 3.48839C3.62564 3.35098 3.81102 3.27226 4.00532 3.26884C4.19963 3.26541 4.38767 3.33753 4.52985 3.47001L9.99985 8.94001L15.4698 3.47001C15.6105 3.32956 15.8011 3.25067 15.9998 3.25067C16.1986 3.25067 16.3892 3.32956 16.5298 3.47001Z" fill="black" style="fill:black;fill-opacity:1;"/>
</svg>
