<svg width="20" height="20" viewBox="0 0 20 20" fill="none" xmlns="http://www.w3.org/2000/svg">
<path fill-rule="evenodd" clip-rule="evenodd" d="M12.4799 2.926C12.5265 2.7324 12.4944 2.52817 12.3905 2.35827C12.2866 2.18836 12.1195 2.06668 11.9259 2.02C11.7322 1.97333 11.528 2.00547 11.3581 2.10936C11.1882 2.21326 11.0665 2.3804 11.0199 2.574L7.51985 17.074C7.47317 17.2676 7.50532 17.4718 7.60921 17.6417C7.71311 17.8116 7.88024 17.9333 8.07385 17.98C8.26746 18.0267 8.47168 17.9945 8.64159 17.8906C8.8115 17.7867 8.93317 17.6196 8.97985 17.426L12.4799 2.926ZM5.76285 5.204C5.61803 5.06771 5.425 4.99452 5.22623 5.00052C5.02745 5.00652 4.83919 5.09123 4.70285 5.236L0.702851 9.486C0.571925 9.62512 0.499023 9.80896 0.499023 10C0.499023 10.191 0.571925 10.3749 0.702851 10.514L4.70285 14.764C4.84016 14.9046 5.02718 14.9857 5.22368 14.9899C5.42017 14.994 5.61044 14.9208 5.75354 14.7861C5.89664 14.6514 5.98115 14.4659 5.98887 14.2695C5.9966 14.0731 5.92693 13.8815 5.79485 13.736L2.27985 10L5.79585 6.264C5.93214 6.11918 6.00533 5.92616 5.99933 5.72738C5.99333 5.5286 5.90763 5.34034 5.76285 5.204ZM14.2349 5.204C14.3797 5.06771 14.5727 4.99452 14.7715 5.00052C14.9703 5.00652 15.1585 5.09123 15.2949 5.236L19.2949 9.486C19.4258 9.62512 19.4987 9.80896 19.4987 10C19.4987 10.191 19.4258 10.3749 19.2949 10.514L15.2949 14.764C15.1575 14.9046 14.9705 14.9857 14.774 14.9899C14.5775 14.994 14.3873 14.9208 14.2442 14.7861C14.1011 14.6514 14.0166 14.4659 14.0088 14.2695C14.0011 14.0731 14.0708 13.8815 14.2029 13.736L17.7199 10L14.2039 6.264C14.0676 6.11918 13.9944 5.92616 14.0004 5.72738C14.0064 5.5286 14.0911 5.34034 14.2359 5.204H14.2349Z" fill="black" style="fill:black;fill-opacity:1;"/>
</svg>
