<svg width="20" height="20" viewBox="0 0 20 20" fill="none" xmlns="http://www.w3.org/2000/svg">
<path fill-rule="evenodd" clip-rule="evenodd" d="M9.21215 2.73698C9.24328 2.64348 9.25568 2.54476 9.24865 2.44647C9.24162 2.34818 9.21531 2.25223 9.1712 2.16411C9.12709 2.07598 9.06606 1.99741 8.99158 1.93288C8.91711 1.86834 8.83066 1.8191 8.73715 1.78798C8.64365 1.75686 8.54494 1.74446 8.44664 1.75148C8.34835 1.75851 8.2524 1.78483 8.16428 1.82894C8.07616 1.87304 7.99758 1.93408 7.93305 2.00855C7.86851 2.08302 7.81928 2.16948 7.78815 2.26298L5.28815 9.76298C5.2253 9.95181 5.24003 10.1579 5.32911 10.3359C5.41819 10.5138 5.57432 10.6491 5.76315 10.712C5.95199 10.7748 6.15806 10.7601 6.33603 10.671C6.514 10.5819 6.6493 10.4258 6.71215 10.237L9.21215 2.73698ZM15.2502 3.00198C15.0512 3.00198 14.8605 3.081 14.7198 3.22165C14.5792 3.3623 14.5002 3.55307 14.5002 3.75198C14.5002 3.95089 14.5792 4.14166 14.7198 4.28231C14.8605 4.42296 15.0512 4.50198 15.2502 4.50198H17.2502C17.3165 4.50198 17.38 4.52832 17.4269 4.5752C17.4738 4.62209 17.5002 4.68568 17.5002 4.75198V16.252C17.5002 16.3183 17.4738 16.3819 17.4269 16.4288C17.38 16.4756 17.3165 16.502 17.2502 16.502H4.25015C4.18385 16.502 4.12026 16.4756 4.07338 16.4288C4.02649 16.3819 4.00015 16.3183 4.00015 16.252V12.752C4.00015 12.5531 3.92114 12.3623 3.78048 12.2217C3.63983 12.081 3.44907 12.002 3.25015 12.002C3.05124 12.002 2.86048 12.081 2.71982 12.2217C2.57917 12.3623 2.50015 12.5531 2.50015 12.752V16.252C2.50015 17.218 3.28415 18.002 4.25015 18.002H17.2502C17.7143 18.002 18.1594 17.8176 18.4876 17.4894C18.8158 17.1612 19.0002 16.7161 19.0002 16.252V4.75198C19.0002 4.28785 18.8158 3.84273 18.4876 3.51454C18.1594 3.18636 17.7143 3.00198 17.2502 3.00198H15.2502ZM11.5602 3.50198C11.4961 3.42388 11.4169 3.35952 11.3274 3.31277C11.2378 3.26602 11.1398 3.23784 11.0391 3.22992C10.9384 3.222 10.8371 3.2345 10.7414 3.26668C10.6456 3.29886 10.5573 3.35004 10.4819 3.41717C10.4064 3.48429 10.3452 3.56597 10.3021 3.65731C10.259 3.74865 10.2347 3.84775 10.2308 3.94869C10.2269 4.04963 10.2435 4.15031 10.2794 4.2447C10.3154 4.33909 10.3701 4.42524 10.4402 4.49798L11.9962 6.25098L10.4402 8.00098C10.3716 8.074 10.3183 8.16002 10.2836 8.25396C10.2488 8.3479 10.2332 8.44785 10.2376 8.54792C10.2421 8.64799 10.2666 8.74615 10.3096 8.8366C10.3527 8.92706 10.4134 9.00797 10.4882 9.07458C10.563 9.14118 10.6504 9.19212 10.7453 9.22439C10.8401 9.25666 10.9404 9.26961 11.0403 9.26247C11.1403 9.25533 11.2377 9.22825 11.327 9.18282C11.4163 9.1374 11.4956 9.07455 11.5602 8.99798L13.5602 6.74998C13.682 6.61273 13.7494 6.43554 13.7494 6.25198C13.7494 6.06842 13.682 5.89124 13.5602 5.75398L11.5602 3.50198ZM3.99915 9.05998C3.85056 9.19191 3.65569 9.25948 3.45733 9.24785C3.25896 9.23623 3.07332 9.14636 2.94115 8.99798L0.941154 6.74998C0.81927 6.61273 0.751953 6.43554 0.751953 6.25198C0.751953 6.06842 0.81927 5.89124 0.941154 5.75398L2.94115 3.50198C3.00521 3.42388 3.08439 3.35952 3.17393 3.31277C3.26347 3.26602 3.36153 3.23784 3.46223 3.22992C3.56293 3.222 3.6642 3.2345 3.75995 3.26668C3.8557 3.29886 3.94396 3.35004 4.01944 3.41717C4.09492 3.48429 4.15607 3.56597 4.19921 3.65731C4.24235 3.74865 4.26659 3.84775 4.27049 3.94869C4.27438 4.04963 4.25785 4.15031 4.22188 4.2447C4.18591 4.33909 4.13124 4.42524 4.06115 4.49798L2.50415 6.25098L4.06115 8.00098C4.12678 8.0746 4.17725 8.16045 4.20966 8.2536C4.24207 8.34675 4.25578 8.44538 4.25002 8.54384C4.24427 8.6423 4.21914 8.73866 4.17609 8.8274C4.13305 8.91614 4.07292 8.99451 3.99915 9.05998Z" fill="black" style="fill:black;fill-opacity:1;"/>
</svg>
