<svg width="20" height="20" viewBox="0 0 20 20" fill="none" xmlns="http://www.w3.org/2000/svg">
<path fill-rule="evenodd" clip-rule="evenodd" d="M3.26303 2.70172C3.03049 2.70172 2.84198 2.89023 2.84198 3.12277V7.33331C2.84198 7.56585 3.03049 7.75436 3.26303 7.75436H7.19282C7.42536 7.75436 7.61387 7.56585 7.61387 7.33331V3.12277C7.61387 2.89023 7.42536 2.70172 7.19282 2.70172H3.26303ZM1.43848 3.12277C1.43848 2.1151 2.25536 1.29822 3.26303 1.29822H7.19282C8.20049 1.29822 9.01737 2.1151 9.01737 3.12277V7.33331C9.01737 8.34098 8.20049 9.15786 7.19282 9.15786H3.26303C2.25536 9.15786 1.43848 8.34098 1.43848 7.33331V3.12277ZM12.8065 2.70172C12.5739 2.70172 12.3854 2.89023 12.3854 3.12277V7.33331C12.3854 7.56585 12.5739 7.75436 12.8065 7.75436H16.7363C16.9688 7.75436 17.1573 7.56585 17.1573 7.33331V3.12277C17.1573 2.89023 16.9688 2.70172 16.7363 2.70172H12.8065ZM10.9819 3.12277C10.9819 2.1151 11.7988 1.29822 12.8065 1.29822H16.7363C17.7439 1.29822 18.5608 2.1151 18.5608 3.12277V7.33331C18.5608 8.34098 17.7439 9.15786 16.7363 9.15786H12.8065C11.7988 9.15786 10.9819 8.34098 10.9819 7.33331V3.12277ZM3.26303 12.2455C3.03049 12.2455 2.84198 12.4341 2.84198 12.6666V16.8771C2.84198 17.1097 3.03049 17.2982 3.26303 17.2982H7.19282C7.42536 17.2982 7.61387 17.1097 7.61387 16.8771V12.6666C7.61387 12.4341 7.42536 12.2455 7.19282 12.2455H3.26303ZM1.43848 12.6666C1.43848 11.6589 2.25536 10.842 3.26303 10.842H7.19282C8.20049 10.842 9.01737 11.6589 9.01737 12.6666V16.8771C9.01737 17.8848 8.20049 18.7017 7.19282 18.7017H3.26303C2.25536 18.7017 1.43848 17.8848 1.43848 16.8771V12.6666ZM12.8065 12.2455C12.5739 12.2455 12.3854 12.4341 12.3854 12.6666V16.8771C12.3854 17.1097 12.5739 17.2982 12.8065 17.2982H16.7363C16.9688 17.2982 17.1573 17.1097 17.1573 16.8771V12.6666C17.1573 12.4341 16.9688 12.2455 16.7363 12.2455H12.8065ZM10.9819 12.6666C10.9819 11.6589 11.7988 10.842 12.8065 10.842H16.7363C17.7439 10.842 18.5608 11.6589 18.5608 12.6666V16.8771C18.5608 17.8848 17.7439 18.7017 16.7363 18.7017H12.8065C11.7988 18.7017 10.9819 17.8848 10.9819 16.8771V12.6666Z" fill="black" style="fill:black;fill-opacity:1;"/>
</svg>
