<svg width="20" height="20" viewBox="0 0 20 20" fill="none" xmlns="http://www.w3.org/2000/svg">
<path fill-rule="evenodd" clip-rule="evenodd" d="M2.5 10C2.5 8.01088 3.29018 6.10322 4.6967 4.6967C6.10322 3.29018 8.01088 2.5 10 2.5C11.9891 2.5 13.8968 3.29018 15.3033 4.6967C16.7098 6.10322 17.5 8.01088 17.5 10C17.5 11.9891 16.7098 13.8968 15.3033 15.3033C13.8968 16.7098 11.9891 17.5 10 17.5C8.01088 17.5 6.10322 16.7098 4.6967 15.3033C3.29018 13.8968 2.5 11.9891 2.5 10ZM10 1C7.61305 1 5.32387 1.94821 3.63604 3.63604C1.94821 5.32387 1 7.61305 1 10C1 12.3869 1.94821 14.6761 3.63604 16.364C5.32387 18.0518 7.61305 19 10 19C12.3869 19 14.6761 18.0518 16.364 16.364C18.0518 14.6761 19 12.3869 19 10C19 7.61305 18.0518 5.32387 16.364 3.63604C14.6761 1.94821 12.3869 1 10 1ZM7.5 9.5C7.89782 9.5 8.27936 9.34196 8.56066 9.06066C8.84196 8.77936 9 8.39782 9 8C9 7.60218 8.84196 7.22064 8.56066 6.93934C8.27936 6.65804 7.89782 6.5 7.5 6.5C7.10218 6.5 6.72064 6.65804 6.43934 6.93934C6.15804 7.22064 6 7.60218 6 8C6 8.39782 6.15804 8.77936 6.43934 9.06066C6.72064 9.34196 7.10218 9.5 7.5 9.5ZM14 8C14 8.19698 13.9612 8.39204 13.8858 8.57403C13.8104 8.75601 13.6999 8.92137 13.5607 9.06066C13.4214 9.19995 13.256 9.31044 13.074 9.38582C12.892 9.4612 12.697 9.5 12.5 9.5C12.303 9.5 12.108 9.4612 11.926 9.38582C11.744 9.31044 11.5786 9.19995 11.4393 9.06066C11.3001 8.92137 11.1896 8.75601 11.1142 8.57403C11.0388 8.39204 11 8.19698 11 8C11 7.60218 11.158 7.22064 11.4393 6.93934C11.7206 6.65804 12.1022 6.5 12.5 6.5C12.8978 6.5 13.2794 6.65804 13.5607 6.93934C13.842 7.22064 14 7.60218 14 8ZM7.615 11.766C7.5852 11.6713 7.5369 11.5835 7.47289 11.5076C7.40889 11.4317 7.33045 11.3692 7.24213 11.3239C7.15381 11.2786 7.05736 11.2512 6.95839 11.2434C6.85942 11.2356 6.75988 11.2476 6.66556 11.2785C6.57124 11.3095 6.484 11.3589 6.40892 11.4239C6.33383 11.4888 6.27239 11.568 6.22815 11.6569C6.18391 11.7458 6.15776 11.8426 6.15121 11.9416C6.14466 12.0407 6.15785 12.1401 6.19 12.234C6.796 14.08 8.428 15 10.027 15C11.626 15 13.257 14.08 13.865 12.234C13.8972 12.1401 13.9103 12.0407 13.9038 11.9416C13.8972 11.8426 13.8711 11.7458 13.8269 11.6569C13.7826 11.568 13.7212 11.4888 13.6461 11.4239C13.571 11.3589 13.4838 11.3095 13.3894 11.2785C13.2951 11.2476 13.1956 11.2356 13.0966 11.2434C12.9976 11.2512 12.9012 11.2786 12.8129 11.3239C12.7246 11.3692 12.6461 11.4317 12.5821 11.5076C12.5181 11.5835 12.4698 11.6713 12.44 11.766C12.06 12.921 11.06 13.5 10.027 13.5C8.994 13.5 7.995 12.92 7.615 11.766Z" fill="black" style="fill:black;fill-opacity:1;"/>
</svg>
