<svg width="20" height="20" viewBox="0 0 20 20" fill="none" xmlns="http://www.w3.org/2000/svg">
<path fill-rule="evenodd" clip-rule="evenodd" d="M8.85988 1.32797C9.20169 1.11421 9.59672 1.00085 9.99988 1.00085C10.403 1.00085 10.7981 1.11421 11.1399 1.32797L17.2579 5.15197C17.4864 5.29493 17.6749 5.49365 17.8055 5.72945C17.9361 5.96526 18.0047 6.2304 18.0047 6.49997C18.0047 6.76954 17.9361 7.03469 17.8055 7.27049C17.6749 7.5063 17.4864 7.70501 17.2579 7.84797L11.1399 11.672C10.7981 11.8857 10.403 11.9991 9.99988 11.9991C9.59672 11.9991 9.20169 11.8857 8.85988 11.672L2.74188 7.84797C2.51334 7.70501 2.32489 7.5063 2.19426 7.27049C2.06362 7.03469 1.99508 6.76954 1.99508 6.49997C1.99508 6.2304 2.06362 5.96526 2.19426 5.72945C2.32489 5.49365 2.51334 5.29493 2.74188 5.15197L8.85988 1.32797ZM10.3449 2.59997C10.2415 2.53521 10.1219 2.50086 9.99988 2.50086C9.87786 2.50086 9.7583 2.53521 9.65488 2.59997L3.53688 6.42397C3.52408 6.43209 3.51353 6.44332 3.50622 6.45661C3.49892 6.46989 3.49509 6.48481 3.49509 6.49997C3.49509 6.51514 3.49892 6.53005 3.50622 6.54334C3.51353 6.55663 3.52408 6.56785 3.53688 6.57597L9.65488 10.4C9.7583 10.4647 9.87786 10.4991 9.99988 10.4991C10.1219 10.4991 10.2415 10.4647 10.3449 10.4L16.4629 6.57597C16.4757 6.56785 16.4862 6.55663 16.4935 6.54334C16.5008 6.53005 16.5047 6.51514 16.5047 6.49997C16.5047 6.48481 16.5008 6.46989 16.4935 6.45661C16.4862 6.44332 16.4757 6.43209 16.4629 6.42397L10.3439 2.59997H10.3449ZM2.09888 10.062C2.20422 9.89335 2.3722 9.77345 2.56591 9.72864C2.75961 9.68382 2.96318 9.71775 3.13188 9.82297L9.65488 13.9C9.75786 13.9648 9.87704 13.9993 9.99873 13.9995C10.1204 13.9997 10.2397 13.9655 10.3429 13.901L16.8619 9.82697C17.0306 9.72155 17.2342 9.68745 17.428 9.73218C17.6218 9.77691 17.79 9.8968 17.8954 10.0655C18.0008 10.2341 18.0349 10.4378 17.9902 10.6316C17.9454 10.8254 17.8256 10.9935 17.6569 11.099L11.1369 15.173C10.7955 15.3865 10.401 15.4997 9.99838 15.4997C9.59575 15.4997 9.20124 15.3865 8.85988 15.173L2.33688 11.095C2.16842 10.9895 2.04873 10.8214 2.00411 10.6277C1.95948 10.434 1.99357 10.2305 2.09888 10.062ZM3.13188 13.323C3.04836 13.2708 2.95537 13.2355 2.85823 13.2193C2.7611 13.203 2.6617 13.206 2.56573 13.2282C2.46976 13.2503 2.3791 13.2912 2.29891 13.3483C2.21872 13.4055 2.15058 13.478 2.09838 13.5615C1.99296 13.7301 1.95886 13.9338 2.00358 14.1276C2.04831 14.3214 2.1682 14.4895 2.33688 14.595L8.85988 18.672C9.20114 18.8856 9.59561 18.999 9.99824 18.9992C10.4009 18.9994 10.7954 18.8863 11.1369 18.673L17.6569 14.599C17.8256 14.4935 17.9454 14.3254 17.9902 14.1316C18.0349 13.9378 18.0008 13.7341 17.8954 13.5655C17.79 13.3968 17.6218 13.2769 17.428 13.2322C17.2342 13.1875 17.0306 13.2215 16.8619 13.327L10.3419 17.401C10.2389 17.4655 10.1199 17.4997 9.99838 17.4997C9.87688 17.4997 9.75784 17.4655 9.65488 17.401L3.13188 13.323Z" fill="black" style="fill:black;fill-opacity:1;"/>
</svg>
