<svg width="20" height="20" viewBox="0 0 20 20" fill="none" xmlns="http://www.w3.org/2000/svg">
<g clip-path="url(#clip0_7_9964)">
<path fill-rule="evenodd" clip-rule="evenodd" d="M6.94114 3.95199C6.48214 2.57399 4.52714 2.58899 4.08814 3.97399L0.0351441 16.774C-0.020535 16.9624 -5.804e-05 17.1651 0.0921725 17.3386C0.184403 17.5121 0.341022 17.6425 0.528356 17.7017C0.71569 17.7609 0.918778 17.7442 1.09396 17.6553C1.26914 17.5663 1.40242 17.4122 1.46514 17.226L2.56614 13.75H8.62614L9.78914 17.237C9.81928 17.3316 9.86792 17.4194 9.93224 17.495C9.99655 17.5707 10.0753 17.6329 10.1638 17.6779C10.2523 17.723 10.3489 17.7499 10.448 17.7573C10.547 17.7647 10.6466 17.7524 10.7408 17.721C10.835 17.6896 10.9221 17.6398 10.9969 17.5745C11.0718 17.5092 11.1329 17.4296 11.1767 17.3405C11.2206 17.2514 11.2463 17.1544 11.2524 17.0553C11.2585 16.9562 11.2448 16.8568 11.2121 16.763L6.94214 3.95299L6.94114 3.95199ZM8.12614 12.25L5.51814 4.42699L3.04114 12.25H8.12614ZM14.3241 6.71299C15.3002 6.35351 16.3673 6.32505 17.3611 6.63199C18.1254 6.86789 18.7939 7.34238 19.2688 7.98592C19.7438 8.62945 20 9.40819 20.0001 10.208V17C20.0001 17.1989 19.9211 17.3897 19.7805 17.5303C19.6398 17.671 19.4491 17.75 19.2501 17.75C19.0512 17.75 18.8605 17.671 18.7198 17.5303C18.5792 17.3897 18.5001 17.1989 18.5001 17V16.255C17.6508 16.8917 16.6829 17.3524 15.6531 17.61C15.074 17.7548 14.4647 17.7233 13.9035 17.5197C13.3423 17.316 12.8547 16.9495 12.5031 16.467C10.8481 14.192 12.4731 11 15.2871 11H18.5001V10.208C18.5001 9.22399 17.8591 8.35499 16.9191 8.06499C16.2394 7.85514 15.5096 7.87482 14.8421 8.12099L14.6001 8.20999C14.2875 8.32513 14.0047 8.50913 13.7727 8.74835C13.5408 8.98757 13.3656 9.2759 13.2601 9.59199L13.2121 9.73699C13.1474 9.92323 13.0118 10.0765 12.8349 10.1635C12.6579 10.2506 12.4538 10.2644 12.2668 10.2021C12.0797 10.1398 11.9247 10.0063 11.8353 9.83055C11.7459 9.65478 11.7293 9.45088 11.7891 9.26299L11.8371 9.11799C12.0137 8.58857 12.307 8.10563 12.6955 7.70491C13.0839 7.30418 13.5575 6.99594 14.0811 6.80299L14.3241 6.71299ZM18.5001 12.5H15.2871C13.7001 12.5 12.7831 14.301 13.7171 15.585C14.0741 16.076 14.6971 16.302 15.2891 16.155C16.1908 15.9295 17.0332 15.5123 17.7591 14.932L18.5001 14.339V12.5Z" fill="black" style="fill:black;fill-opacity:1;"/>
</g>
<defs>
<clipPath id="clip0_7_9964">
<rect width="20" height="20" fill="white" style="fill:white;fill-opacity:1;"/>
</clipPath>
</defs>
</svg>
