<svg width="20" height="20" viewBox="0 0 20 20" fill="none" xmlns="http://www.w3.org/2000/svg">
<path fill-rule="evenodd" clip-rule="evenodd" d="M9.984 4.176C10.0227 3.91848 9.95947 3.656 9.80768 3.4444C9.65589 3.23279 9.42754 3.08875 9.17119 3.0429C8.91484 2.99705 8.65072 3.05301 8.43499 3.19888C8.21925 3.34475 8.06894 3.56902 8.016 3.824L7.448 7H4C3.73478 7 3.48043 7.10535 3.29289 7.29289C3.10536 7.48043 3 7.73478 3 8C3 8.26521 3.10536 8.51957 3.29289 8.7071C3.48043 8.89464 3.73478 9 4 9H7.091L6.288 13.5H3C2.73478 13.5 2.48043 13.6054 2.29289 13.7929C2.10536 13.9804 2 14.2348 2 14.5C2 14.7652 2.10536 15.0196 2.29289 15.2071C2.48043 15.3946 2.73478 15.5 3 15.5H5.93L5.516 17.824C5.47727 18.0815 5.54053 18.344 5.69232 18.5556C5.84411 18.7672 6.07246 18.9112 6.32881 18.9571C6.58516 19.0029 6.84929 18.947 7.06502 18.8011C7.28075 18.6552 7.43106 18.431 7.484 18.176L7.962 15.5H10.681L10.266 17.824C10.2388 17.9549 10.2382 18.0898 10.2641 18.221C10.2899 18.3521 10.3419 18.4767 10.4167 18.5874C10.4916 18.6981 10.5879 18.7927 10.6999 18.8656C10.812 18.9385 10.9375 18.9881 11.0691 19.0117C11.2006 19.0352 11.3356 19.0321 11.4659 19.0026C11.5963 18.9731 11.7194 18.9177 11.828 18.8398C11.9366 18.7619 12.0285 18.663 12.0982 18.549C12.168 18.435 12.2141 18.3082 12.234 18.176L12.712 15.5H16C16.2652 15.5 16.5196 15.3946 16.7071 15.2071C16.8946 15.0196 17 14.7652 17 14.5C17 14.2348 16.8946 13.9804 16.7071 13.7929C16.5196 13.6054 16.2652 13.5 16 13.5H13.07L13.873 9H17C17.2652 9 17.5196 8.89464 17.7071 8.7071C17.8946 8.51957 18 8.26521 18 8C18 7.73478 17.8946 7.48043 17.7071 7.29289C17.5196 7.10535 17.2652 7 17 7H14.23L14.734 4.176C14.7612 4.04513 14.7618 3.91015 14.7359 3.77903C14.7101 3.6479 14.6581 3.5233 14.5833 3.41258C14.5084 3.30186 14.4121 3.20727 14.3001 3.13441C14.188 3.06154 14.0625 3.01187 13.9309 2.98834C13.7994 2.96481 13.6644 2.96789 13.5341 2.9974C13.4037 3.02691 13.2806 3.08225 13.172 3.16016C13.0634 3.23806 12.9715 3.33695 12.9018 3.45097C12.832 3.56499 12.7859 3.69183 12.766 3.824L12.198 7H9.48L9.984 4.176ZM11.038 13.5L11.84 9H9.123L8.319 13.5H11.038Z" fill="black" style="fill:black;fill-opacity:1;"/>
</svg>
