<svg width="20" height="20" viewBox="0 0 20 20" fill="none" xmlns="http://www.w3.org/2000/svg">
<path fill-rule="evenodd" clip-rule="evenodd" d="M9.74 3.87801C9.75674 3.78083 9.75418 3.68131 9.73246 3.58512C9.71074 3.48893 9.67029 3.39796 9.61341 3.31741C9.55654 3.23685 9.48435 3.16829 9.40098 3.11563C9.31761 3.06297 9.22468 3.02725 9.1275 3.01051C9.03032 2.99377 8.9308 2.99633 8.83461 3.01805C8.73842 3.03977 8.64745 3.08022 8.5669 3.1371C8.48634 3.19397 8.41778 3.26616 8.36512 3.34953C8.31246 3.4329 8.27674 3.52583 8.26 3.62301L7.68 7.00001H3.75C3.55109 7.00001 3.36032 7.07903 3.21967 7.21968C3.07902 7.36033 3 7.5511 3 7.75001C3 7.94892 3.07902 8.13969 3.21967 8.28034C3.36032 8.42099 3.55109 8.50001 3.75 8.50001H7.42L6.472 14H2.75C2.55109 14 2.36032 14.079 2.21967 14.2197C2.07902 14.3603 2 14.5511 2 14.75C2 14.9489 2.07902 15.1397 2.21967 15.2803C2.36032 15.421 2.55109 15.5 2.75 15.5H6.213L5.761 18.123C5.73038 18.3176 5.77755 18.5164 5.89232 18.6765C6.00709 18.8367 6.18024 18.9452 6.37437 18.9787C6.56849 19.0122 6.768 18.9679 6.92979 18.8555C7.09157 18.7432 7.20264 18.5716 7.239 18.378L7.735 15.5H10.963L10.511 18.123C10.4804 18.3176 10.5275 18.5164 10.6423 18.6765C10.7571 18.8367 10.9302 18.9452 11.1244 18.9787C11.3185 19.0122 11.518 18.9679 11.6798 18.8555C11.8416 18.7432 11.9526 18.5716 11.989 18.378L12.485 15.5H16.25C16.4489 15.5 16.6397 15.421 16.7803 15.2803C16.921 15.1397 17 14.9489 17 14.75C17 14.5511 16.921 14.3603 16.7803 14.2197C16.6397 14.079 16.4489 14 16.25 14H12.744L13.692 8.50001H17.25C17.4489 8.50001 17.6397 8.42099 17.7803 8.28034C17.921 8.13969 18 7.94892 18 7.75001C18 7.5511 17.921 7.36033 17.7803 7.21968C17.6397 7.07903 17.4489 7.00001 17.25 7.00001H13.95L14.49 3.87801C14.5238 3.68175 14.4783 3.4801 14.3634 3.31741C14.2485 3.15472 14.0738 3.04433 13.8775 3.01051C13.6812 2.97669 13.4796 3.02223 13.3169 3.1371C13.1542 3.25196 13.0438 3.42675 13.01 3.62301L12.43 7.00001H9.2L9.738 3.87801H9.74ZM11.221 14L12.169 8.50001H8.942L7.994 14H11.222H11.221Z" fill="black" style="fill:black;fill-opacity:1;"/>
</svg>
