<svg width="20" height="20" viewBox="0 0 20 20" fill="none" xmlns="http://www.w3.org/2000/svg">
<path fill-rule="evenodd" clip-rule="evenodd" d="M10 2.5C8.01088 2.5 6.10322 3.29018 4.6967 4.6967C3.29018 6.10322 2.5 8.01088 2.5 10C2.5 11.9891 3.29018 13.8968 4.6967 15.3033C6.10322 16.7098 8.01088 17.5 10 17.5C11.9891 17.5 13.8968 16.7098 15.3033 15.3033C16.7098 13.8968 17.5 11.9891 17.5 10C17.5 8.01088 16.7098 6.10322 15.3033 4.6967C13.8968 3.29018 11.9891 2.5 10 2.5ZM1 10C1 7.61305 1.94821 5.32387 3.63604 3.63604C5.32387 1.94821 7.61305 1 10 1C12.3869 1 14.6761 1.94821 16.364 3.63604C18.0518 5.32387 19 7.61305 19 10C19 12.3869 18.0518 14.6761 16.364 16.364C14.6761 18.0518 12.3869 19 10 19C7.61305 19 5.32387 18.0518 3.63604 16.364C1.94821 14.6761 1 12.3869 1 10ZM8.883 7.352C8.653 7.547 8.5 7.836 8.5 8.25C8.5 8.44891 8.42098 8.63968 8.28033 8.78033C8.13968 8.92098 7.94891 9 7.75 9C7.55109 9 7.36032 8.92098 7.21967 8.78033C7.07902 8.63968 7 8.44891 7 8.25C7 7.414 7.333 6.703 7.91 6.21C8.473 5.73 9.22 5.5 10 5.5C10.776 5.5 11.577 5.727 12.2 6.229C12.842 6.746 13.25 7.523 13.25 8.5C13.25 9.327 12.986 10.015 12.443 10.501C11.97 10.924 11.363 11.124 10.75 11.204V12H9.25V11C9.25 10.291 9.816 9.789 10.43 9.731C10.937 9.683 11.257 9.551 11.443 9.384C11.605 9.239 11.75 8.994 11.75 8.5C11.75 7.977 11.547 7.63 11.258 7.396C10.951 7.148 10.502 7 10 7C9.503 7 9.124 7.146 8.883 7.352ZM10 15C10.2652 15 10.5196 14.8946 10.7071 14.7071C10.8946 14.5196 11 14.2652 11 14C11 13.7348 10.8946 13.4804 10.7071 13.2929C10.5196 13.1054 10.2652 13 10 13C9.73478 13 9.48043 13.1054 9.29289 13.2929C9.10536 13.4804 9 13.7348 9 14C9 14.2652 9.10536 14.5196 9.29289 14.7071C9.48043 14.8946 9.73478 15 10 15Z" fill="black" style="fill:black;fill-opacity:1;"/>
</svg>
