<svg width="20" height="20" viewBox="0 0 20 20" fill="none" xmlns="http://www.w3.org/2000/svg">
<path d="M18.8727 9.0216C18.8417 8.70279 18.8273 8.37996 18.7611 8.06917C18.5276 6.96635 18.0544 5.94575 17.4323 5.00735C17.0376 4.41383 16.6119 3.82633 16.0291 3.36716C15.5889 3.02228 15.2045 2.60522 14.7003 2.34254C14.1485 2.05782 13.605 1.74101 13.0222 1.53448C12.4787 1.34199 11.8876 1.27983 11.3193 1.1495C10.8047 1.0312 10.2819 0.995104 9.75491 1.00112C9.54412 1.00513 9.33126 1.02518 9.12253 1.05125C8.68855 1.10338 8.25043 1.13747 7.82471 1.2297C7.089 1.39011 6.40496 1.68286 5.73332 2.02574C4.89635 2.45283 4.21851 3.06439 3.5324 3.66191C3.14388 4.00078 2.84422 4.44993 2.55696 4.88303C2.13951 5.50663 1.79852 6.17433 1.54433 6.87813C1.21988 7.77642 1.02768 8.70279 1.00909 9.65522C0.992553 10.6077 1.00495 11.5601 1.00495 12.5105C1.00495 13.5211 0.998752 14.5317 1.00909 15.5423C1.01115 15.7688 1.04835 15.9994 1.11448 16.218C1.4782 17.4451 2.29451 18.2893 3.5014 18.7685C4.05731 18.9891 4.65249 18.9931 5.24974 18.9991C5.82218 19.0051 6.33263 18.8848 6.78521 18.5399C7.1572 18.2572 7.44239 17.9083 7.55399 17.4672C7.63665 17.1423 7.64492 16.7955 7.64905 16.4586C7.65938 15.2555 7.65525 14.0545 7.64905 12.8514C7.64905 12.5947 7.64285 12.3341 7.58912 12.0834C7.47339 11.546 7.18407 11.1069 6.72115 10.7801C6.36156 10.5254 5.97511 10.349 5.51219 10.369C5.2208 10.3811 4.92735 10.3831 4.63389 10.369C4.03458 10.339 3.48073 10.4673 2.95788 10.752C2.72229 10.8803 2.69749 10.8663 2.71196 10.6117C2.73676 10.1846 2.77396 9.75748 2.81529 9.33039C2.84422 9.03764 2.85662 8.73888 2.92688 8.45415C3.12321 7.67215 3.39187 6.91222 3.79279 6.2004C4.06971 5.70714 4.4169 5.26401 4.81162 4.85897C5.10921 4.55419 5.42746 4.25543 5.78498 4.02284C6.23343 3.73009 6.71082 3.46541 7.20887 3.2649C7.81025 3.02429 8.43229 2.84583 9.09773 2.79169C9.87684 2.72753 10.6518 2.72352 11.4082 2.87992C12.1294 3.0303 12.8238 3.28295 13.4686 3.65189C14.3221 4.14114 15.0702 4.74067 15.6509 5.52267C16.149 6.19238 16.5292 6.92425 16.7875 7.71627C17.1037 8.68875 17.2401 9.67928 17.2215 10.6939C17.2174 10.9024 17.1884 10.9265 17.0087 10.8182C16.4527 10.4813 15.8348 10.3911 15.1983 10.3731C14.8449 10.363 14.4915 10.369 14.1402 10.3731C14.0576 10.3731 13.9749 10.3911 13.8964 10.4152C13.1917 10.6277 12.7101 11.0688 12.4704 11.7506C12.3464 12.1015 12.3485 12.4624 12.3526 12.8293C12.3671 14.2229 12.3692 15.6184 12.365 17.012C12.365 17.5995 12.6688 18.0487 13.0697 18.4276C13.4913 18.8246 14.0121 19.0392 14.63 18.9951C15.0537 18.965 15.4773 18.9951 15.8989 18.9068C16.5375 18.7765 17.0851 18.4978 17.5997 18.1108C18.4966 17.4331 18.9678 16.5348 18.9657 15.4641C18.9616 13.3166 19.0897 11.1671 18.8748 9.0216H18.8727ZM2.70989 14.0524C2.70989 13.1201 3.5262 12.1596 4.43963 12.0794C4.82402 12.0453 5.21254 12.0574 5.59899 12.0834C5.68992 12.0894 5.80978 12.2198 5.84698 12.318C5.90071 12.4584 5.90691 12.6228 5.90898 12.7772C5.91518 13.4028 5.91105 14.0284 5.91105 14.656C5.91105 15.2816 5.91311 15.9072 5.90898 16.5348C5.90898 16.6812 5.90485 16.8356 5.85525 16.9719C5.79532 17.1403 5.64652 17.2767 5.45846 17.2787C5.08441 17.2847 4.70002 17.2987 4.33837 17.2266C3.62126 17.0802 3.13354 16.625 2.87729 15.9693C2.76982 15.6926 2.73882 15.3798 2.71609 15.0811C2.68923 14.7402 2.70989 14.3973 2.70989 14.0545V14.0524ZM17.2112 15.5302C17.1967 15.6686 17.1657 15.8009 17.1203 15.9292C17.1017 15.9834 17.081 16.0375 17.0562 16.0897C17.0521 16.0977 17.05 16.1057 17.0459 16.1137C16.7875 16.6591 16.2647 17.0742 15.6406 17.2205C15.591 17.2326 15.5372 17.2366 15.4876 17.2446C15.3492 17.2667 15.2066 17.2787 15.0619 17.2827C14.8656 17.2867 14.6651 17.2807 14.4709 17.2787C14.382 17.2787 14.3055 17.2426 14.2415 17.1804C14.2208 17.1604 14.2002 17.1363 14.1836 17.1103C14.1134 17.008 14.072 16.8636 14.072 16.7052C14.07 16.0034 14.072 15.3036 14.072 14.6019C14.072 13.9101 14.072 13.2163 14.072 12.5245C14.072 12.3341 14.1464 12.1817 14.2787 12.0995C14.3448 12.0574 14.4233 12.0313 14.5163 12.0293C14.971 12.0112 15.4318 11.9992 15.8679 12.1716C16.1614 12.2859 16.4135 12.4343 16.6181 12.6188C16.7069 12.699 16.7855 12.7892 16.8557 12.8835C17.0541 13.1481 17.1802 13.465 17.2132 13.8439C17.2153 13.876 17.2174 13.9081 17.2194 13.9402C17.2608 14.4675 17.2649 15.0049 17.2112 15.5302Z" fill="black" style="fill:black;fill-opacity:1;"/>
</svg>
