<svg width="20" height="20" viewBox="0 0 20 20" fill="none" xmlns="http://www.w3.org/2000/svg">
<path fill-rule="evenodd" clip-rule="evenodd" d="M7 2.75C7 2.55109 7.07902 2.36032 7.21967 2.21967C7.36032 2.07902 7.55109 2 7.75 2H15.25C15.4489 2 15.6397 2.07902 15.7803 2.21967C15.921 2.36032 16 2.55109 16 2.75C16 2.94891 15.921 3.13968 15.7803 3.28033C15.6397 3.42098 15.4489 3.5 15.25 3.5H12.3L9.7 16.5H12.25C12.4489 16.5 12.6397 16.579 12.7803 16.7197C12.921 16.8603 13 17.0511 13 17.25C13 17.4489 12.921 17.6397 12.7803 17.7803C12.6397 17.921 12.4489 18 12.25 18H4.75C4.55109 18 4.36032 17.921 4.21967 17.7803C4.07902 17.6397 4 17.4489 4 17.25C4 17.0511 4.07902 16.8603 4.21967 16.7197C4.36032 16.579 4.55109 16.5 4.75 16.5H7.7L10.3 3.5H7.75C7.55109 3.5 7.36032 3.42098 7.21967 3.28033C7.07902 3.13968 7 2.94891 7 2.75Z" fill="black" style="fill:black;fill-opacity:1;"/>
</svg>
