<svg width="20" height="20" viewBox="0 0 20 20" fill="none" xmlns="http://www.w3.org/2000/svg">
<path d="M15.7174 5.20594C15.5529 4.58068 15.1811 3.91462 14.7692 3.41842C14.3211 2.87875 13.8229 2.37519 13.2337 1.99C12.0119 1.19287 10.5527 0.854489 9.10423 1.05778C7.8811 1.22898 6.72083 1.86361 5.85748 2.72628C5.34991 3.23318 4.88313 3.80561 4.56882 4.45696C4.24849 5.12101 4.092 5.7864 4.02312 6.51666C3.89071 7.91699 4.33275 9.36079 5.20212 10.4609C5.67224 11.0554 6.1952 11.6178 6.73554 12.1481C6.9676 12.3754 7.22306 12.5848 7.24647 12.9312C7.27255 13.3103 7.24847 13.6982 7.25115 14.078C7.25583 14.7608 7.34343 15.3834 7.9774 15.7633C8.28837 15.9498 8.6214 15.9772 8.97517 15.9759C9.35501 15.9746 9.73486 15.9759 10.1147 15.9759C10.4946 15.9759 10.8644 15.9759 11.2389 15.9766C11.8568 15.9773 12.4493 15.7017 12.6452 15.0785C12.7536 14.7341 12.7308 14.3589 12.7328 14.0025C12.7355 13.6333 12.678 13.2074 12.7415 12.8442C12.7997 12.5125 13.1401 12.2384 13.3641 12.0103C13.6356 11.7341 13.9112 11.4613 14.1726 11.1757C14.6695 10.6327 15.1229 10.0295 15.4533 9.36882C16.0973 8.08351 16.0746 6.56682 15.7161 5.20528L15.7174 5.20594ZM13.863 9.14546C13.546 9.67376 13.1281 10.1332 12.7027 10.5752C12.474 10.8133 12.244 11.0493 12.0133 11.2854C11.7986 11.5054 11.5472 11.7208 11.3994 11.9943C11.2522 12.2664 11.2583 12.5373 11.2516 12.8362C11.2442 13.1639 11.2476 13.4929 11.2462 13.8206C11.2449 14.0292 11.3164 14.3743 11.061 14.4606C10.9239 14.5067 10.7293 14.4753 10.5862 14.4753C10.4063 14.4753 10.2264 14.4753 10.0472 14.4753V14.4813C9.74489 14.4813 9.44195 14.4866 9.13968 14.4813C8.97784 14.4779 8.87954 14.4505 8.82269 14.3837C8.76251 14.3181 8.74378 14.2125 8.74311 14.0506C8.74178 13.7477 8.74713 13.4441 8.74646 13.1411C8.74512 12.8395 8.76585 12.5092 8.68426 12.2163C8.61271 11.9615 8.44151 11.7355 8.24289 11.5288C8.04227 11.3209 7.81557 11.1316 7.63634 10.9497C7.53202 10.844 7.4297 10.7364 7.32872 10.628C7.02645 10.3024 6.73956 9.96533 6.45735 9.62026C5.80198 8.81978 5.47363 7.78592 5.49569 6.75339C5.5191 5.65065 6.02668 4.66694 6.77901 3.87851C8.28034 2.30564 10.7694 2.05353 12.555 3.32011C12.8298 3.51538 13.0779 3.7374 13.2993 3.98149C13.7888 4.52049 14.1466 5.16783 14.3619 5.87133C14.6903 6.94465 14.4321 8.1992 13.8644 9.14546H13.863Z" fill="black" style="fill:black;fill-opacity:1;"/>
<path d="M9.99311 18.9745C9.34777 18.9745 7.99022 19.2179 8.00894 18.2008C8.01496 17.8691 8.25036 17.5655 8.57938 17.506C9.00738 17.4284 9.49623 17.4846 9.93091 17.4819C10.3843 17.4792 10.8712 17.4284 11.3199 17.4986C11.7031 17.5581 11.9793 17.8169 11.9779 18.2262C11.9766 18.5565 11.7385 18.9023 11.4001 18.9544C10.9507 19.0233 10.4485 18.9752 9.99311 18.9845C9.99311 18.9819 9.99311 18.9785 9.99311 18.9758V18.9745Z" fill="black" style="fill:black;fill-opacity:1;"/>
</svg>
