<svg width="20" height="20" viewBox="0 0 20 20" fill="none" xmlns="http://www.w3.org/2000/svg">
<path fill-rule="evenodd" clip-rule="evenodd" d="M12.3058 3.755C12.8215 3.2393 13.521 2.94959 14.2503 2.94959C14.9796 2.94959 15.6791 3.2393 16.1948 3.755L16.2448 3.805C16.5003 4.06038 16.703 4.36359 16.8412 4.69732C16.9795 5.03105 17.0507 5.38876 17.0507 5.75C17.0507 6.11125 16.9795 6.46895 16.8412 6.80268C16.703 7.13641 16.5003 7.43962 16.2448 7.695L13.0648 10.875C12.8015 11.1382 12.4876 11.3451 12.142 11.4834C11.7964 11.6217 11.4263 11.6883 11.0542 11.6794C10.6821 11.6704 10.3157 11.586 9.97715 11.4312C9.63862 11.2764 9.33504 11.0546 9.08479 10.779L9.05479 10.745C8.98847 10.6721 8.90845 10.613 8.81929 10.5711C8.73012 10.5291 8.63357 10.5051 8.53514 10.5005C8.33635 10.4911 8.14198 10.5611 7.99479 10.695C7.84759 10.8289 7.75963 11.0159 7.75025 11.2146C7.74088 11.4134 7.81085 11.6078 7.94479 11.755L7.97479 11.788C8.36162 12.2136 8.83082 12.5563 9.35397 12.7953C9.87712 13.0342 10.4433 13.1646 11.0183 13.1783C11.5933 13.192 12.1651 13.0889 12.6991 12.8752C13.233 12.6615 13.7181 12.3417 14.1248 11.935L17.3048 8.755C18.1017 7.95799 18.5494 6.87707 18.5494 5.75C18.5494 4.62293 18.1017 3.54201 17.3048 2.745L17.2548 2.695C16.4578 1.8981 15.3769 1.45041 14.2498 1.45041C13.1227 1.45041 12.0418 1.8981 11.2448 2.695L9.46979 4.47C9.3961 4.53866 9.337 4.62146 9.29601 4.71346C9.25501 4.80546 9.23297 4.90478 9.2312 5.00548C9.22942 5.10618 9.24794 5.20621 9.28567 5.2996C9.32339 5.39299 9.37953 5.47782 9.45075 5.54904C9.52197 5.62026 9.6068 5.6764 9.70019 5.71412C9.79358 5.75185 9.89361 5.77037 9.99431 5.76859C10.095 5.76682 10.1943 5.74477 10.2863 5.70378C10.3783 5.66279 10.4611 5.60369 10.5298 5.53L12.3058 3.755ZM7.69479 16.245C7.43941 16.5005 7.1362 16.7032 6.80247 16.8415C6.46874 16.9797 6.11103 17.0509 5.74979 17.0509C5.38854 17.0509 5.03084 16.9797 4.69711 16.8415C4.36338 16.7032 4.06017 16.5005 3.80479 16.245L3.75479 16.195C3.49929 15.9396 3.29661 15.6364 3.15833 15.3027C3.02005 14.9689 2.94887 14.6112 2.94887 14.25C2.94887 13.8888 3.02005 13.5311 3.15833 13.1973C3.29661 12.8636 3.49929 12.5604 3.75479 12.305L6.93479 9.125C7.19803 8.86184 7.51196 8.65485 7.85756 8.51659C8.20316 8.37833 8.57323 8.31167 8.94535 8.32064C9.31747 8.32962 9.68389 8.41404 10.0224 8.56881C10.361 8.72357 10.6645 8.94545 10.9148 9.221L10.9448 9.254C11.0786 9.4012 11.2654 9.48921 11.4641 9.49868C11.6628 9.50815 11.8571 9.4383 12.0043 9.3045C12.1515 9.1707 12.2395 8.9839 12.249 8.78521C12.2584 8.58652 12.1886 8.3922 12.0548 8.245L12.0248 8.211C11.6379 7.78545 11.1686 7.44285 10.6454 7.20396C10.1223 6.96507 9.55603 6.83486 8.98105 6.82121C8.40607 6.80756 7.8343 6.91076 7.30036 7.12455C6.76643 7.33835 6.28145 7.65829 5.87479 8.065L2.69479 11.245C1.89788 12.042 1.4502 13.1229 1.4502 14.25C1.4502 15.3771 1.89788 16.458 2.69479 17.255L2.74479 17.305C3.5418 18.1019 4.62272 18.5496 5.74979 18.5496C6.87686 18.5496 7.95778 18.1019 8.75479 17.305L10.5298 15.53C10.6623 15.3878 10.7344 15.1998 10.731 15.0055C10.7275 14.8112 10.6488 14.6258 10.5114 14.4884C10.374 14.351 10.1886 14.2723 9.99431 14.2688C9.80001 14.2654 9.61196 14.3375 9.46979 14.47L7.69479 16.245Z" fill="black" style="fill:black;fill-opacity:1;"/>
</svg>
