<svg width="20" height="20" viewBox="0 0 20 20" fill="none" xmlns="http://www.w3.org/2000/svg">
<path fill-rule="evenodd" clip-rule="evenodd" d="M10 1.5C8.80653 1.5 7.66193 1.97411 6.81802 2.81802C5.97411 3.66193 5.5 4.80653 5.5 6V7.5H5.25C4.65326 7.5 4.08097 7.73705 3.65901 8.15901C3.23705 8.58097 3 9.15326 3 9.75V16.25C3 17.216 3.784 18 4.75 18H15.25C15.7141 18 16.1592 17.8156 16.4874 17.4874C16.8156 17.1592 17 16.7141 17 16.25V9.75C17 9.15326 16.7629 8.58097 16.341 8.15901C15.919 7.73705 15.3467 7.5 14.75 7.5H14.5V6C14.5 4.80653 14.0259 3.66193 13.182 2.81802C12.3381 1.97411 11.1935 1.5 10 1.5ZM13 7.5V6C13 5.20435 12.6839 4.44129 12.1213 3.87868C11.5587 3.31607 10.7956 3 10 3C9.20435 3 8.44129 3.31607 7.87868 3.87868C7.31607 4.44129 7 5.20435 7 6V7.5H13ZM4.5 9.75C4.5 9.55109 4.57902 9.36032 4.71967 9.21967C4.86032 9.07902 5.05109 9 5.25 9H14.75C14.9489 9 15.1397 9.07902 15.2803 9.21967C15.421 9.36032 15.5 9.55109 15.5 9.75V16.25C15.5 16.3163 15.4737 16.3799 15.4268 16.4268C15.3799 16.4737 15.3163 16.5 15.25 16.5H4.75C4.6837 16.5 4.62011 16.4737 4.57322 16.4268C4.52634 16.3799 4.5 16.3163 4.5 16.25V9.75Z" fill="black" style="fill:black;fill-opacity:1;"/>
</svg>
