<svg width="20" height="20" viewBox="0 0 20 20" fill="none" xmlns="http://www.w3.org/2000/svg">
<path fill-rule="evenodd" clip-rule="evenodd" d="M2.50001 10C2.50001 8.0109 3.29019 6.10324 4.69671 4.69672C6.10323 3.2902 8.01089 2.50002 10 2.50002C11.9891 2.50002 13.8968 3.2902 15.3033 4.69672C16.7098 6.10324 17.5 8.0109 17.5 10V10.645C17.5 11.669 16.67 12.5 15.645 12.5C15.3413 12.5 15.0501 12.3794 14.8354 12.1647C14.6206 11.9499 14.5 11.6587 14.5 11.355V6.75002C14.5009 6.55902 14.4288 6.37489 14.2986 6.23519C14.1683 6.09549 13.9897 6.01075 13.7991 5.99825C13.6085 5.98575 13.4203 6.04643 13.273 6.16792C13.1256 6.28941 13.0301 6.46255 13.006 6.65202C12.3378 6.05207 11.5053 5.66577 10.6157 5.54283C9.72616 5.41989 8.82014 5.56593 8.01424 5.96215C7.20834 6.35838 6.53942 6.98667 6.09354 7.7662C5.64766 8.54573 5.44522 9.44084 5.51225 10.3364C5.57929 11.2319 5.91273 12.0869 6.4697 12.7914C7.02666 13.4958 7.78166 14.0175 8.63757 14.2894C9.49348 14.5612 10.4111 14.5707 11.2725 14.3167C12.1339 14.0627 12.8995 13.5568 13.471 12.864C13.7146 13.2152 14.0398 13.502 14.4186 13.6998C14.7975 13.8977 15.2186 14.0007 15.646 14C16.5356 13.9998 17.3887 13.6462 18.0177 13.017C18.6467 12.3879 19 11.5346 19 10.645V10C18.9999 7.98401 18.3229 6.02643 17.0775 4.44107C15.8321 2.85571 14.0906 1.73438 12.1319 1.25683C10.1733 0.779276 8.11106 0.973157 6.27575 1.80739C4.44045 2.64163 2.93839 4.06791 2.01034 5.8576C1.08228 7.64729 0.781991 9.69676 1.15759 11.6775C1.53319 13.6582 2.56294 15.4554 4.08176 16.7811C5.60058 18.1068 7.52052 18.8842 9.53382 18.9886C11.5471 19.093 13.5372 18.5185 15.185 17.357C15.2679 17.3012 15.3388 17.2295 15.3936 17.1459C15.4484 17.0623 15.4859 16.9687 15.504 16.8704C15.5221 16.7721 15.5203 16.6712 15.4989 16.5737C15.4774 16.4761 15.4367 16.3837 15.379 16.3021C15.3214 16.2205 15.248 16.1512 15.1632 16.0984C15.0785 16.0455 14.984 16.0101 14.8853 15.9942C14.7867 15.9784 14.6858 15.9824 14.5888 16.0061C14.4917 16.0297 14.4003 16.0726 14.32 16.132C13.1968 16.9235 11.8778 17.3911 10.5069 17.484C9.13598 17.5769 7.76593 17.2913 6.54625 16.6586C5.32658 16.0258 4.30417 15.0702 3.59062 13.896C2.87707 12.7217 2.49981 11.3741 2.50001 10ZM10 13C10.7957 13 11.5587 12.6839 12.1213 12.1213C12.6839 11.5587 13 10.7957 13 10C13 9.20437 12.6839 8.44131 12.1213 7.8787C11.5587 7.31609 10.7957 7.00002 10 7.00002C9.20436 7.00002 8.4413 7.31609 7.87869 7.8787C7.31608 8.44131 7.00001 9.20437 7.00001 10C7.00001 10.7957 7.31608 11.5587 7.87869 12.1213C8.4413 12.6839 9.20436 13 10 13Z" fill="black" style="fill:black;fill-opacity:1;"/>
</svg>
