<svg width="20" height="20" viewBox="0 0 20 20" fill="none" xmlns="http://www.w3.org/2000/svg">
<path fill-rule="evenodd" clip-rule="evenodd" d="M16.707 3.26801C16.5195 3.08054 16.2652 2.97523 16 2.97523C15.7348 2.97523 15.4805 3.08054 15.293 3.26801L14.811 3.75001L16.25 5.19001L16.732 4.70701C16.9195 4.51949 17.0248 4.26518 17.0248 4.00001C17.0248 3.73485 16.9195 3.48054 16.732 3.29301L16.707 3.26801ZM15.19 6.25001L13.75 4.81001L8.682 9.87901L8.251 11.75L10.121 11.319L15.19 6.25001ZM14.233 2.20701C14.4652 1.9748 14.7408 1.79059 15.0441 1.66491C15.3475 1.53923 15.6726 1.47455 16.001 1.47455C16.3294 1.47455 16.6545 1.53923 16.9579 1.66491C17.2612 1.79059 17.5368 1.9748 17.769 2.20701L17.794 2.23201C18.0262 2.46417 18.2104 2.7398 18.3361 3.04315C18.4618 3.34651 18.5265 3.67165 18.5265 4.00001C18.5265 4.32837 18.4618 4.65352 18.3361 4.95688C18.2104 5.26023 18.0262 5.53586 17.794 5.76801L11.03 12.53C10.9307 12.6291 10.8057 12.6984 10.669 12.73L7.419 13.48C7.29506 13.5087 7.16586 13.5054 7.04355 13.4704C6.92124 13.4354 6.80984 13.3699 6.71983 13.28C6.62983 13.1901 6.56417 13.0787 6.52904 12.9565C6.4939 12.8342 6.49045 12.705 6.519 12.581L7.269 9.33101C7.3006 9.19435 7.36989 9.06928 7.469 8.97001L14.233 2.20701ZM5.25 4.00001C4.65326 4.00001 4.08097 4.23707 3.65901 4.65902C3.23705 5.08098 3 5.65328 3 6.25001V14.75C3 15.3468 3.23705 15.919 3.65901 16.341C4.08097 16.763 4.65326 17 5.25 17H13.75C14.3467 17 14.919 16.763 15.341 16.341C15.7629 15.919 16 15.3468 16 14.75V10.25C16 10.0511 16.079 9.86034 16.2197 9.71968C16.3603 9.57903 16.5511 9.50001 16.75 9.50001C16.9489 9.50001 17.1397 9.57903 17.2803 9.71968C17.421 9.86034 17.5 10.0511 17.5 10.25V14.75C17.5 15.2425 17.403 15.7301 17.2145 16.1851C17.0261 16.64 16.7499 17.0534 16.4017 17.4017C16.0534 17.7499 15.64 18.0261 15.1851 18.2146C14.7301 18.403 14.2425 18.5 13.75 18.5H5.25C4.75754 18.5 4.26991 18.403 3.81494 18.2146C3.35997 18.0261 2.94657 17.7499 2.59835 17.4017C2.25013 17.0534 1.97391 16.64 1.78545 16.1851C1.597 15.7301 1.5 15.2425 1.5 14.75V6.25001C1.5 5.25545 1.89509 4.30163 2.59835 3.59836C3.30161 2.8951 4.25544 2.50001 5.25 2.50001H9.75C9.94891 2.50001 10.1397 2.57903 10.2803 2.71968C10.421 2.86034 10.5 3.0511 10.5 3.25001C10.5 3.44893 10.421 3.63969 10.2803 3.78034C10.1397 3.921 9.94891 4.00001 9.75 4.00001H5.25Z" fill="black" style="fill:black;fill-opacity:1;"/>
</svg>
