<svg width="20" height="20" viewBox="0 0 20 20" fill="none" xmlns="http://www.w3.org/2000/svg">
<path fill-rule="evenodd" clip-rule="evenodd" d="M3.792 2.09402C3.85639 2.14035 3.90883 2.20133 3.945 2.27192C3.98117 2.34252 4.00002 2.4207 4 2.50002V6.00002H5C5.13261 6.00002 5.25979 6.0527 5.35355 6.14647C5.44732 6.24024 5.5 6.36742 5.5 6.50002C5.5 6.63263 5.44732 6.75981 5.35355 6.85358C5.25979 6.94735 5.13261 7.00002 5 7.00002H2C1.86739 7.00002 1.74021 6.94735 1.64645 6.85358C1.55268 6.75981 1.5 6.63263 1.5 6.50002C1.5 6.36742 1.55268 6.24024 1.64645 6.14647C1.74021 6.0527 1.86739 6.00002 2 6.00002H3V3.19402L2.158 3.47402C2.03385 3.51023 1.9005 3.49693 1.78595 3.43691C1.67139 3.37689 1.58455 3.27482 1.54366 3.15214C1.50276 3.02945 1.51099 2.89569 1.56662 2.77894C1.62225 2.6622 1.72095 2.57155 1.842 2.52602L3.342 2.02602C3.41704 2.00095 3.49696 1.99404 3.57519 2.00586C3.65341 2.01768 3.72772 2.0479 3.792 2.09402ZM7.75 3.50002C7.55109 3.50002 7.36032 3.57904 7.21967 3.71969C7.07902 3.86035 7 4.05111 7 4.25002C7 4.44894 7.07902 4.6397 7.21967 4.78035C7.36032 4.92101 7.55109 5.00002 7.75 5.00002H17.75C17.9489 5.00002 18.1397 4.92101 18.2803 4.78035C18.421 4.6397 18.5 4.44894 18.5 4.25002C18.5 4.05111 18.421 3.86035 18.2803 3.71969C18.1397 3.57904 17.9489 3.50002 17.75 3.50002H7.75ZM7 10.75C7 10.5511 7.07902 10.3603 7.21967 10.2197C7.36032 10.079 7.55109 10 7.75 10H17.75C17.9489 10 18.1397 10.079 18.2803 10.2197C18.421 10.3603 18.5 10.5511 18.5 10.75C18.5 10.9489 18.421 11.1397 18.2803 11.2804C18.1397 11.421 17.9489 11.5 17.75 11.5H7.75C7.55109 11.5 7.36032 11.421 7.21967 11.2804C7.07902 11.1397 7 10.9489 7 10.75ZM7 17.25C7 17.0511 7.07902 16.8603 7.21967 16.7197C7.36032 16.579 7.55109 16.5 7.75 16.5H17.75C17.9489 16.5 18.1397 16.579 18.2803 16.7197C18.421 16.8603 18.5 17.0511 18.5 17.25C18.5 17.4489 18.421 17.6397 18.2803 17.7804C18.1397 17.921 17.9489 18 17.75 18H7.75C7.55109 18 7.36032 17.921 7.21967 17.7804C7.07902 17.6397 7 17.4489 7 17.25ZM2.707 13.89C2.80031 13.7684 2.9204 13.67 3.05793 13.6024C3.19546 13.5347 3.34674 13.4997 3.5 13.5C3.99 13.5 4.25 13.88 4.25 14.25C4.25 14.314 4.217 14.444 4.077 14.659C3.90078 14.9134 3.70198 15.1514 3.483 15.37C3.227 15.637 2.931 15.918 2.613 16.218L2.525 16.302C2.22789 16.5794 1.93486 16.8611 1.646 17.147C1.57624 17.217 1.52877 17.3061 1.5096 17.403C1.49044 17.5 1.50042 17.6004 1.5383 17.6917C1.57617 17.7829 1.64024 17.8609 1.72242 17.9158C1.80459 17.9707 1.90118 18 2 18H5C5.13261 18 5.25979 17.9473 5.35355 17.8536C5.44732 17.7598 5.5 17.6326 5.5 17.5C5.5 17.3674 5.44732 17.2402 5.35355 17.1465C5.25979 17.0527 5.13261 17 5 17H3.242L3.3 16.945C3.616 16.647 3.929 16.35 4.204 16.063C4.46673 15.799 4.70472 15.5115 4.915 15.204C5.095 14.927 5.25 14.6 5.25 14.25C5.25 13.463 4.668 12.5 3.5 12.5C3.12052 12.4996 2.74877 12.6072 2.42823 12.8104C2.10769 13.0135 1.85163 13.3037 1.69 13.647C1.66196 13.7064 1.6459 13.7708 1.64274 13.8364C1.63958 13.9021 1.64937 13.9677 1.67157 14.0295C1.69376 14.0914 1.72792 14.1482 1.77209 14.1969C1.81626 14.2455 1.86958 14.285 1.929 14.313C1.98842 14.3411 2.05279 14.3571 2.11842 14.3603C2.18405 14.3634 2.24965 14.3537 2.3115 14.3315C2.37334 14.3093 2.43021 14.2751 2.47885 14.2309C2.5275 14.1868 2.56696 14.1334 2.595 14.074C2.62557 14.0088 2.66312 13.9471 2.707 13.89Z" fill="black" style="fill:black;fill-opacity:1;"/>
</svg>
