<svg width="20" height="20" viewBox="0 0 20 20" fill="none" xmlns="http://www.w3.org/2000/svg">
<path fill-rule="evenodd" clip-rule="evenodd" d="M13.6162 3.44398C13.7322 3.32787 13.8701 3.23576 14.0217 3.17293C14.1734 3.11009 14.336 3.07774 14.5002 3.07774C14.6643 3.07774 14.8269 3.11009 14.9786 3.17293C15.1303 3.23576 15.2681 3.32787 15.3842 3.44398L16.5552 4.61598C16.6713 4.73205 16.7634 4.86987 16.8262 5.02155C16.8891 5.17322 16.9214 5.3358 16.9214 5.49998C16.9214 5.66416 16.8891 5.82673 16.8262 5.97841C16.7634 6.13009 16.6713 6.2679 16.5552 6.38398L15.5002 7.43898L12.5602 4.49998L13.6162 3.44398ZM11.5002 5.56098L4.42117 12.639L3.31917 16.681L7.36117 15.579L14.4392 8.49898L11.5002 5.56098ZM16.4452 2.38398C16.1898 2.12848 15.8866 1.9258 15.5528 1.78752C15.2191 1.64924 14.8614 1.57806 14.5002 1.57806C14.1389 1.57806 13.7812 1.64924 13.4475 1.78752C13.1138 1.9258 12.8105 2.12848 12.5552 2.38398L3.22017 11.72C3.1276 11.8122 3.06072 11.927 3.02617 12.053L1.52617 17.553C1.49157 17.6805 1.49128 17.8149 1.52531 17.9425C1.55934 18.0702 1.62648 18.1866 1.71996 18.28C1.81343 18.3733 1.92991 18.4404 2.05761 18.4743C2.18531 18.5082 2.31969 18.5077 2.44717 18.473L7.94717 16.973C8.07307 16.9387 8.18784 16.8722 8.28017 16.78L17.6162 7.44398C18.1319 6.92826 18.4216 6.2288 18.4216 5.49948C18.4216 4.77015 18.1319 4.0707 17.6162 3.55498L16.4452 2.38398Z" fill="black" style="fill:black;fill-opacity:1;"/>
</svg>
