<svg width="20" height="20" viewBox="0 0 20 20" fill="none" xmlns="http://www.w3.org/2000/svg">
<path fill-rule="evenodd" clip-rule="evenodd" d="M10.75 3.25C10.75 3.05109 10.671 2.86032 10.5303 2.71967C10.3897 2.57902 10.1989 2.5 10 2.5C9.80109 2.5 9.61032 2.57902 9.46967 2.71967C9.32902 2.86032 9.25 3.05109 9.25 3.25V9.25H3.251C3.05209 9.25 2.86032 9.32902 2.71967 9.46967C2.57902 9.61032 2.5 9.80109 2.5 10C2.5 10.1989 2.57902 10.3897 2.71967 10.5303C2.86032 10.671 3.05109 10.75 3.25 10.75H9.25V16.75C9.25 16.9489 9.32902 17.1397 9.46967 17.2803C9.61032 17.421 9.80109 17.5 10 17.5C10.1989 17.5 10.3897 17.421 10.5303 17.2803C10.671 17.1397 10.75 16.9489 10.75 16.75V10.75H16.75C16.9489 10.75 17.1397 10.671 17.2803 10.5303C17.421 10.3897 17.5 10.1989 17.5 10C17.5 9.80109 17.421 9.61032 17.2803 9.46967C17.1397 9.32902 16.9489 9.25 16.75 9.25H10.75V3.25Z" fill="black" style="fill:black;fill-opacity:1;"/>
</svg>
