<svg width="20" height="20" viewBox="0 0 20 20" fill="none" xmlns="http://www.w3.org/2000/svg">
<path fill-rule="evenodd" clip-rule="evenodd" d="M10.457 2.56C10.5924 2.50237 10.7418 2.48587 10.8866 2.51254C11.0313 2.53921 11.165 2.60788 11.271 2.71L18.271 9.46C18.3436 9.52996 18.4013 9.61384 18.4408 9.70662C18.4802 9.7994 18.5005 9.89918 18.5005 10C18.5005 10.1008 18.4802 10.2006 18.4408 10.2934C18.4013 10.3862 18.3436 10.47 18.271 10.54L11.271 17.29C11.1651 17.3923 11.0314 17.4612 10.8866 17.488C10.7418 17.5148 10.5923 17.4984 10.4567 17.4408C10.3212 17.3832 10.2056 17.287 10.1244 17.1641C10.0432 17.0413 9.9999 16.8973 10 16.75V13.5H6C4.648 13.5 3.95 13.889 3.57 14.332C3.17 14.797 3 15.465 3 16.25C3 16.4489 2.92098 16.6397 2.78033 16.7803C2.63968 16.921 2.44891 17 2.25 17C2.05109 17 1.86032 16.921 1.71967 16.7803C1.57902 16.6397 1.5 16.4489 1.5 16.25V14C1.5 11.406 2.082 9.46 3.5 8.191C4.898 6.941 6.944 6.5 9.5 6.5H10V3.25C10 2.95 10.18 2.677 10.457 2.56ZM3.052 12.79C3.777 12.278 4.753 12 6 12H10.75C10.9489 12 11.1397 12.079 11.2803 12.2197C11.421 12.3603 11.5 12.5511 11.5 12.75V14.985L16.67 10L11.5 5.015V7.25C11.5 7.44891 11.421 7.63968 11.2803 7.78033C11.1397 7.92098 10.9489 8 10.75 8H9.5C7.056 8 5.477 8.434 4.5 9.309C3.716 10.011 3.21 11.097 3.052 12.79Z" fill="black" style="fill:black;fill-opacity:1;"/>
</svg>
