<svg width="20" height="20" viewBox="0 0 20 20" fill="none" xmlns="http://www.w3.org/2000/svg">
<path fill-rule="evenodd" clip-rule="evenodd" d="M9 2.99999C7.4087 2.99999 5.88258 3.63213 4.75736 4.75735C3.63214 5.88257 3 7.40869 3 8.99999C3 10.5913 3.63214 12.1174 4.75736 13.2426C5.88258 14.3678 7.4087 15 9 15C10.5913 15 12.1174 14.3678 13.2426 13.2426C14.3679 12.1174 15 10.5913 15 8.99999C15 7.40869 14.3679 5.88257 13.2426 4.75735C12.1174 3.63213 10.5913 2.99999 9 2.99999ZM1.5 8.99999C1.49993 7.79835 1.78859 6.61429 2.34167 5.5475C2.89475 4.48071 3.69606 3.56244 4.67813 2.86999C5.66019 2.17755 6.79426 1.73121 7.98484 1.56856C9.17542 1.40592 10.3877 1.53172 11.5195 1.93539C12.6513 2.33905 13.6695 3.00876 14.4885 3.88811C15.3074 4.76746 15.9031 5.83072 16.2253 6.98834C16.5475 8.14597 16.5869 9.36408 16.3401 10.5401C16.0933 11.7161 15.5675 12.8156 14.807 13.746L18.28 17.22C18.3537 17.2887 18.4128 17.3715 18.4538 17.4635C18.4948 17.5555 18.5168 17.6548 18.5186 17.7555C18.5204 17.8562 18.5018 17.9562 18.4641 18.0496C18.4264 18.143 18.3703 18.2278 18.299 18.299C18.2278 18.3702 18.143 18.4264 18.0496 18.4641C17.9562 18.5018 17.8562 18.5204 17.7555 18.5186C17.6548 18.5168 17.5555 18.4948 17.4635 18.4538C17.3715 18.4128 17.2887 18.3537 17.22 18.28L13.747 14.807C12.648 15.7055 11.3165 16.2736 9.90743 16.4453C8.49832 16.6171 7.0694 16.3854 5.78674 15.7772C4.50408 15.1691 3.42036 14.2093 2.66152 13.0096C1.90269 11.8099 1.49991 10.4195 1.5 8.99999Z" fill="black" style="fill:black;fill-opacity:1;"/>
</svg>
