<svg width="20" height="20" viewBox="0 0 20 20" fill="none" xmlns="http://www.w3.org/2000/svg">
<path d="M1.5 2.25001C1.50066 2.13017 1.52983 2.01221 1.58511 1.90588C1.64039 1.79955 1.72019 1.70791 1.8179 1.63853C1.91562 1.56915 2.02844 1.52403 2.14705 1.5069C2.26566 1.48977 2.38665 1.50112 2.5 1.54001L18.096 9.34701C18.2173 9.40762 18.3193 9.50082 18.3906 9.61616C18.4619 9.7315 18.4997 9.86441 18.4997 10C18.4997 10.1356 18.4619 10.2685 18.3906 10.3839C18.3193 10.4992 18.2173 10.5924 18.096 10.653L2.5 18.46L2.424 18.478C2.31391 18.5045 2.19926 18.5056 2.08866 18.4814C1.97806 18.4571 1.8744 18.4081 1.78546 18.3381C1.69653 18.268 1.62464 18.1787 1.57519 18.0768C1.52575 17.975 1.50004 17.8632 1.5 17.75V13.21C1.5 12 2.47 10.981 3.71 10.96L10.25 10.79C10.52 10.78 11 10.55 11 10C11 9.45001 10.5 9.21001 10.25 9.21001L3.71 9.04001C3.1203 9.02875 2.55852 8.78669 2.14531 8.36582C1.73211 7.94495 1.50042 7.37882 1.5 6.78901V2.25001Z" fill="black" style="fill:black;fill-opacity:1;"/>
</svg>
