<svg width="20" height="20" viewBox="0 0 20 20" fill="none" xmlns="http://www.w3.org/2000/svg">
<path fill-rule="evenodd" clip-rule="evenodd" d="M1.856 1.612C1.96477 1.54471 2.08894 1.50636 2.21671 1.50058C2.34448 1.49481 2.4716 1.5218 2.586 1.579L18.086 9.329C18.2107 9.39126 18.3155 9.48701 18.3888 9.60553C18.4621 9.72405 18.501 9.86065 18.501 10C18.501 10.1394 18.4621 10.276 18.3888 10.3945C18.3155 10.513 18.2107 10.6087 18.086 10.671L2.586 18.421C2.47162 18.4783 2.34448 18.5054 2.21667 18.4997C2.08885 18.494 1.96462 18.4558 1.85578 18.3885C1.74694 18.3213 1.65711 18.2273 1.59484 18.1155C1.53257 18.0038 1.49992 17.8779 1.5 17.75V11.704C1.5 11.024 1.802 10.414 2.28 10C2.03496 9.78889 1.83841 9.52734 1.70379 9.23324C1.56917 8.93915 1.49965 8.61944 1.5 8.296V2.25C1.50003 2.12213 1.53275 1.99639 1.59506 1.88472C1.65737 1.77306 1.74719 1.67918 1.856 1.612ZM3 3.464V8.296C2.99991 8.49099 3.07576 8.67835 3.21148 8.81836C3.34719 8.95837 3.5321 9.04002 3.727 9.046L10.273 9.25C10.4719 9.25 10.6627 9.32902 10.8033 9.46967C10.944 9.61032 11.023 9.80109 11.023 10C11.023 10.1989 10.944 10.3897 10.8033 10.5303C10.6627 10.671 10.4719 10.75 10.273 10.75L3.727 10.954C3.5321 10.96 3.34719 11.0416 3.21148 11.1816C3.07576 11.3217 2.99991 11.509 3 11.704V16.536L16.073 10L3 3.464Z" fill="black" style="fill:black;fill-opacity:1;"/>
</svg>
