<svg width="20" height="20" viewBox="0 0 20 20" fill="none" xmlns="http://www.w3.org/2000/svg">
<path fill-rule="evenodd" clip-rule="evenodd" d="M4.25015 2.5C3.52081 2.5 2.82134 2.78973 2.30561 3.30546C1.78989 3.82118 1.50015 4.52065 1.50015 5.25V9.25C1.50015 9.44891 1.57917 9.63968 1.71982 9.78033C1.86048 9.92098 2.05124 10 2.25015 10C2.44907 10 2.63983 9.92098 2.78048 9.78033C2.92114 9.63968 3.00015 9.44891 3.00015 9.25V5.25C3.00015 4.56 3.56015 4 4.25015 4H15.7502C16.4402 4 17.0002 4.56 17.0002 5.25V14.75C17.0002 15.44 16.4402 16 15.7502 16H7.75015C7.55124 16 7.36048 16.079 7.21982 16.2197C7.07917 16.3603 7.00015 16.5511 7.00015 16.75C7.00015 16.9489 7.07917 17.1397 7.21982 17.2803C7.36048 17.421 7.55124 17.5 7.75015 17.5H15.7502C16.4795 17.5 17.179 17.2103 17.6947 16.6945C18.2104 16.1788 18.5002 15.4793 18.5002 14.75V5.25C18.5002 4.52065 18.2104 3.82118 17.6947 3.30546C17.179 2.78973 16.4795 2.5 15.7502 2.5H4.25015ZM5.76615 6.206C5.69525 6.13552 5.61098 6.07993 5.51828 6.0425C5.42559 6.00506 5.32635 5.98653 5.22639 5.988C5.12643 5.98947 5.02778 6.01091 4.93622 6.05106C4.84467 6.09121 4.76207 6.14925 4.69327 6.22178C4.62447 6.29431 4.57087 6.37986 4.53561 6.47341C4.50036 6.56695 4.48416 6.6666 4.48797 6.7665C4.49177 6.86639 4.51552 6.96452 4.55779 7.05511C4.60007 7.1457 4.66003 7.22692 4.73415 7.294L9.48415 11.794C9.62348 11.9261 9.80816 11.9997 10.0002 11.9997C10.1921 11.9997 10.3768 11.9261 10.5162 11.794L15.2662 7.294C15.4051 7.15591 15.4845 6.96896 15.4873 6.77311C15.4902 6.57726 15.4164 6.38805 15.2816 6.24594C15.1468 6.10382 14.9617 6.02009 14.766 6.01262C14.5703 6.00516 14.3794 6.07456 14.2342 6.206L10.0002 10.216L5.76615 6.206ZM5.00015 13.56L6.22015 14.78C6.36167 14.9166 6.55116 14.9921 6.7478 14.9903C6.94445 14.9885 7.13253 14.9095 7.27152 14.7704C7.41051 14.6312 7.4893 14.4431 7.49091 14.2465C7.49253 14.0498 7.41684 13.8604 7.28015 13.719L4.78015 11.219C4.63953 11.0785 4.4489 10.9997 4.25015 10.9997C4.0514 10.9997 3.86078 11.0785 3.72015 11.219L1.22015 13.719C1.14647 13.7877 1.08736 13.8705 1.04637 13.9625C1.00538 14.0545 0.983339 14.1538 0.981562 14.2545C0.979785 14.3552 0.99831 14.4552 1.03603 14.5486C1.07375 14.642 1.1299 14.7268 1.20112 14.798C1.27233 14.8693 1.35717 14.9254 1.45056 14.9631C1.54394 15.0008 1.64397 15.0194 1.74468 15.0176C1.84538 15.0158 1.94469 14.9938 2.03669 14.9528C2.12869 14.9118 2.21149 14.8527 2.28015 14.779L3.50015 13.559V16.749C3.50015 16.9479 3.57917 17.1387 3.71982 17.2793C3.86048 17.42 4.05124 17.499 4.25015 17.499C4.44907 17.499 4.63983 17.42 4.78048 17.2793C4.92114 17.1387 5.00015 16.9479 5.00015 16.749V13.559V13.56Z" fill="black" style="fill:black;fill-opacity:1;"/>
</svg>
