<svg width="20" height="20" viewBox="0 0 20 20" fill="none" xmlns="http://www.w3.org/2000/svg">
<path fill-rule="evenodd" clip-rule="evenodd" d="M13.5 3.24999C13.2348 3.24999 12.9804 3.35534 12.7929 3.54288C12.6054 3.73042 12.5 3.98477 12.5 4.24999C12.5 4.5152 12.6054 4.76956 12.7929 4.95709C12.9804 5.14463 13.2348 5.24999 13.5 5.24999C13.7652 5.24999 14.0196 5.14463 14.2071 4.95709C14.3946 4.76956 14.5 4.5152 14.5 4.24999C14.5 3.98477 14.3946 3.73042 14.2071 3.54288C14.0196 3.35534 13.7652 3.24999 13.5 3.24999ZM11.114 3.49999C11.2736 2.99215 11.591 2.54846 12.0201 2.23348C12.4492 1.9185 12.9677 1.74866 13.5 1.74866C14.0323 1.74866 14.5508 1.9185 14.9799 2.23348C15.409 2.54846 15.7264 2.99215 15.886 3.49999H17.75C17.9489 3.49999 18.1397 3.579 18.2803 3.71966C18.421 3.86031 18.5 4.05107 18.5 4.24999C18.5 4.4489 18.421 4.63967 18.2803 4.78032C18.1397 4.92097 17.9489 4.99999 17.75 4.99999H15.886C15.7262 5.50745 15.4087 5.95073 14.9797 6.2654C14.5507 6.58006 14.0325 6.74973 13.5005 6.74973C12.9685 6.74973 12.4503 6.58006 12.0213 6.2654C11.5923 5.95073 11.2748 5.50745 11.115 4.99999H2.25C2.05109 4.99999 1.86032 4.92097 1.71967 4.78032C1.57902 4.63967 1.5 4.4489 1.5 4.24999C1.5 4.05107 1.57902 3.86031 1.71967 3.71966C1.86032 3.579 2.05109 3.49999 2.25 3.49999H11.114ZM4.114 9.24999C4.27356 8.74215 4.591 8.29846 5.02012 7.98348C5.44925 7.6685 5.96768 7.49866 6.5 7.49866C7.03232 7.49866 7.55075 7.6685 7.97988 7.98348C8.409 8.29846 8.72644 8.74215 8.886 9.24999H17.75C17.9489 9.24999 18.1397 9.32901 18.2803 9.46966C18.421 9.61031 18.5 9.80107 18.5 9.99999C18.5 10.1989 18.421 10.3897 18.2803 10.5303C18.1397 10.671 17.9489 10.75 17.75 10.75H8.886C8.72644 11.2578 8.409 11.7015 7.97988 12.0165C7.55075 12.3315 7.03232 12.5013 6.5 12.5013C5.96768 12.5013 5.44925 12.3315 5.02012 12.0165C4.591 11.7015 4.27356 11.2578 4.114 10.75H2.25C2.05109 10.75 1.86032 10.671 1.71967 10.5303C1.57902 10.3897 1.5 10.1989 1.5 9.99999C1.5 9.80107 1.57902 9.61031 1.71967 9.46966C1.86032 9.32901 2.05109 9.24999 2.25 9.24999H4.114ZM6.5 8.99999C6.23478 8.99999 5.98043 9.10534 5.79289 9.29288C5.60536 9.48042 5.5 9.73477 5.5 9.99999C5.5 10.2652 5.60536 10.5196 5.79289 10.7071C5.98043 10.8946 6.23478 11 6.5 11C6.76522 11 7.01957 10.8946 7.20711 10.7071C7.39464 10.5196 7.5 10.2652 7.5 9.99999C7.5 9.73477 7.39464 9.48042 7.20711 9.29288C7.01957 9.10534 6.76522 8.99999 6.5 8.99999ZM12.5 14.75C12.2348 14.75 11.9804 14.8553 11.7929 15.0429C11.6054 15.2304 11.5 15.4848 11.5 15.75C11.5 16.0152 11.6054 16.2696 11.7929 16.4571C11.9804 16.6446 12.2348 16.75 12.5 16.75C12.7652 16.75 13.0196 16.6446 13.2071 16.4571C13.3946 16.2696 13.5 16.0152 13.5 15.75C13.5 15.4848 13.3946 15.2304 13.2071 15.0429C13.0196 14.8553 12.7652 14.75 12.5 14.75ZM10.114 15C10.2736 14.4921 10.591 14.0485 11.0201 13.7335C11.4492 13.4185 11.9677 13.2487 12.5 13.2487C13.0323 13.2487 13.5508 13.4185 13.9799 13.7335C14.409 14.0485 14.7264 14.4921 14.886 15H17.75C17.9489 15 18.1397 15.079 18.2803 15.2197C18.421 15.3603 18.5 15.5511 18.5 15.75C18.5 15.9489 18.421 16.1397 18.2803 16.2803C18.1397 16.421 17.9489 16.5 17.75 16.5H14.886C14.7262 17.0075 14.4087 17.4507 13.9797 17.7654C13.5507 18.0801 13.0325 18.2497 12.5005 18.2497C11.9685 18.2497 11.4503 18.0801 11.0213 17.7654C10.5923 17.4507 10.2748 17.0075 10.115 16.5H2.25C2.05109 16.5 1.86032 16.421 1.71967 16.2803C1.57902 16.1397 1.5 15.9489 1.5 15.75C1.5 15.5511 1.57902 15.3603 1.71967 15.2197C1.86032 15.079 2.05109 15 2.25 15H10.114Z" fill="black" style="fill:black;fill-opacity:1;"/>
</svg>
