<svg width="20" height="20" viewBox="0 0 20 20" fill="none" xmlns="http://www.w3.org/2000/svg">
<path fill-rule="evenodd" clip-rule="evenodd" d="M4.5 3H15.5C15.8978 3 16.2794 3.15804 16.5607 3.43934C16.842 3.72064 17 4.10218 17 4.5V15.5C17 15.8978 16.842 16.2794 16.5607 16.5607C16.2794 16.842 15.8978 17 15.5 17H4.5C4.10218 17 3.72064 16.842 3.43934 16.5607C3.15804 16.2794 3 15.8978 3 15.5V4.5C3 4.10218 3.15804 3.72064 3.43934 3.43934C3.72064 3.15804 4.10218 3 4.5 3ZM1.5 4.5C1.5 3.70435 1.81607 2.94129 2.37868 2.37868C2.94129 1.81607 3.70435 1.5 4.5 1.5H15.5C16.2956 1.5 17.0587 1.81607 17.6213 2.37868C18.1839 2.94129 18.5 3.70435 18.5 4.5V15.5C18.5 16.2956 18.1839 17.0587 17.6213 17.6213C17.0587 18.1839 16.2956 18.5 15.5 18.5H4.5C3.70435 18.5 2.94129 18.1839 2.37868 17.6213C1.81607 17.0587 1.5 16.2956 1.5 15.5V4.5ZM13.14 5.891C13.2423 5.72131 13.2733 5.51801 13.2263 5.32553C13.1792 5.13305 13.0578 4.96702 12.8887 4.86371C12.7196 4.7604 12.5165 4.72821 12.3238 4.77417C12.131 4.82013 11.9643 4.94051 11.86 5.109L6.36 14.109C6.25768 14.2787 6.22667 14.482 6.27375 14.6745C6.32083 14.867 6.44217 15.033 6.61127 15.1363C6.78036 15.2396 6.98347 15.2718 7.17623 15.2258C7.36898 15.1799 7.53571 15.0595 7.64 14.891L13.14 5.891Z" fill="black" style="fill:black;fill-opacity:1;"/>
</svg>
