<svg width="20" height="20" viewBox="0 0 20 20" fill="none" xmlns="http://www.w3.org/2000/svg">
<path fill-rule="evenodd" clip-rule="evenodd" d="M1 4.75C1 3.75544 1.39509 2.80161 2.09835 2.09835C2.80161 1.39509 3.75544 1 4.75 1H10.25C11.2446 1 12.1984 1.39509 12.9017 2.09835C13.6049 2.80161 14 3.75544 14 4.75V7.25H15.25C16.2446 7.25 17.1984 7.64509 17.9017 8.34835C18.6049 9.05161 19 10.0054 19 11V17.25C19 17.7141 18.8156 18.1592 18.4874 18.4874C18.1592 18.8156 17.7141 19 17.25 19H2.75C2.28587 19 1.84075 18.8156 1.51256 18.4874C1.18437 18.1592 1 17.7141 1 17.25V4.75ZM14 17.5V8.75H15.25C15.8467 8.75 16.419 8.98705 16.841 9.40901C17.2629 9.83097 17.5 10.4033 17.5 11V17.25C17.5 17.3163 17.4737 17.3799 17.4268 17.4268C17.3799 17.4737 17.3163 17.5 17.25 17.5H14ZM4.75 2.5C4.15326 2.5 3.58097 2.73705 3.15901 3.15901C2.73705 3.58097 2.5 4.15326 2.5 4.75V17.25C2.5 17.388 2.612 17.5 2.75 17.5H4.5V15.75C4.5 14.784 5.284 14 6.25 14H8.75C9.716 14 10.5 14.784 10.5 15.75V17.5H12.5V4.75C12.5 4.15326 12.2629 3.58097 11.841 3.15901C11.419 2.73705 10.8467 2.5 10.25 2.5H4.75ZM9 17.5V15.75C9 15.6837 8.97366 15.6201 8.92678 15.5732C8.87989 15.5263 8.8163 15.5 8.75 15.5H6.25C6.1837 15.5 6.12011 15.5263 6.07322 15.5732C6.02634 15.6201 6 15.6837 6 15.75V17.5H9ZM7 8.5C7 8.76522 6.89464 9.01957 6.70711 9.20711C6.51957 9.39464 6.26522 9.5 6 9.5C5.73478 9.5 5.48043 9.39464 5.29289 9.20711C5.10536 9.01957 5 8.76522 5 8.5C5 8.23478 5.10536 7.98043 5.29289 7.79289C5.48043 7.60536 5.73478 7.5 6 7.5C6.26522 7.5 6.51957 7.60536 6.70711 7.79289C6.89464 7.98043 7 8.23478 7 8.5ZM6 6.5C6.26522 6.5 6.51957 6.39464 6.70711 6.20711C6.89464 6.01957 7 5.76522 7 5.5C7 5.23478 6.89464 4.98043 6.70711 4.79289C6.51957 4.60536 6.26522 4.5 6 4.5C5.73478 4.5 5.48043 4.60536 5.29289 4.79289C5.10536 4.98043 5 5.23478 5 5.5C5 5.76522 5.10536 6.01957 5.29289 6.20711C5.48043 6.39464 5.73478 6.5 6 6.5ZM10 5.5C10 5.76522 9.89464 6.01957 9.70711 6.20711C9.51957 6.39464 9.26522 6.5 9 6.5C8.73478 6.5 8.48043 6.39464 8.29289 6.20711C8.10536 6.01957 8 5.76522 8 5.5C8 5.23478 8.10536 4.98043 8.29289 4.79289C8.48043 4.60536 8.73478 4.5 9 4.5C9.26522 4.5 9.51957 4.60536 9.70711 4.79289C9.89464 4.98043 10 5.23478 10 5.5ZM9 9.5C9.26522 9.5 9.51957 9.39464 9.70711 9.20711C9.89464 9.01957 10 8.76522 10 8.5C10 8.23478 9.89464 7.98043 9.70711 7.79289C9.51957 7.60536 9.26522 7.5 9 7.5C8.73478 7.5 8.48043 7.60536 8.29289 7.79289C8.10536 7.98043 8 8.23478 8 8.5C8 8.76522 8.10536 9.01957 8.29289 9.20711C8.48043 9.39464 8.73478 9.5 9 9.5ZM10 11.5C10 11.7652 9.89464 12.0196 9.70711 12.2071C9.51957 12.3946 9.26522 12.5 9 12.5C8.73478 12.5 8.48043 12.3946 8.29289 12.2071C8.10536 12.0196 8 11.7652 8 11.5C8 11.2348 8.10536 10.9804 8.29289 10.7929C8.48043 10.6054 8.73478 10.5 9 10.5C9.26522 10.5 9.51957 10.6054 9.70711 10.7929C9.89464 10.9804 10 11.2348 10 11.5ZM6 12.5C6.26522 12.5 6.51957 12.3946 6.70711 12.2071C6.89464 12.0196 7 11.7652 7 11.5C7 11.2348 6.89464 10.9804 6.70711 10.7929C6.51957 10.6054 6.26522 10.5 6 10.5C5.73478 10.5 5.48043 10.6054 5.29289 10.7929C5.10536 10.9804 5 11.2348 5 11.5C5 11.7652 5.10536 12.0196 5.29289 12.2071C5.48043 12.3946 5.73478 12.5 6 12.5Z" fill="black" style="fill:black;fill-opacity:1;"/>
</svg>
