<svg width="20" height="20" viewBox="0 0 20 20" fill="none" xmlns="http://www.w3.org/2000/svg">
<path fill-rule="evenodd" clip-rule="evenodd" d="M11.721 3.84003C10.811 3.50603 9.693 3.48003 8.686 3.72603C7.176 4.13303 6.307 5.58703 6.522 6.87603C6.718 8.05103 7.939 9.50003 11.5 9.50003C11.509 9.5002 11.518 9.50054 11.527 9.50103H17.25C17.4489 9.50103 17.6397 9.58005 17.7803 9.7207C17.921 9.86135 18 10.0521 18 10.251C18 10.4499 17.921 10.6407 17.7803 10.7814C17.6397 10.922 17.4489 11.001 17.25 11.001H2.75C2.55109 11.001 2.36032 10.922 2.21967 10.7814C2.07902 10.6407 2 10.4499 2 10.251C2 10.0521 2.07902 9.86135 2.21967 9.7207C2.36032 9.58005 2.55109 9.50103 2.75 9.50103H6.41C5.65 8.85203 5.194 8.03303 5.042 7.12403C4.695 5.04003 6.075 2.87103 8.307 2.27603L8.314 2.27403L8.321 2.27203C9.573 1.96503 11.001 1.98003 12.236 2.43203C13.488 2.88903 14.573 3.81303 14.974 5.30603C15.0206 5.49633 14.9908 5.6973 14.8912 5.86596C14.7915 6.03462 14.6297 6.15757 14.4406 6.20852C14.2514 6.25948 14.0498 6.23438 13.8789 6.13861C13.708 6.04283 13.5813 5.88398 13.526 5.69603C13.276 4.77103 12.616 4.16803 11.721 3.84003ZM14.689 12.954C14.6527 12.86 14.5979 12.7742 14.5277 12.7018C14.4576 12.6294 14.3736 12.5719 14.2807 12.5327C14.1878 12.4936 14.088 12.4735 13.9872 12.4738C13.8864 12.4741 13.7867 12.4946 13.694 12.5343C13.6013 12.574 13.5176 12.6319 13.4478 12.7047C13.3781 12.7775 13.3237 12.8635 13.2879 12.9578C13.2522 13.052 13.2358 13.1525 13.2398 13.2533C13.2437 13.354 13.268 13.4529 13.311 13.544C13.584 14.184 13.497 14.749 13.181 15.218C12.848 15.71 12.223 16.143 11.361 16.355C10.372 16.598 9.37 16.52 8.332 16.231C7.402 15.971 6.719 15.296 6.474 14.386C6.4187 14.1981 6.29205 14.0392 6.12114 13.9435C5.95023 13.8477 5.74862 13.8226 5.55945 13.8735C5.37027 13.9245 5.20854 14.0474 5.10885 14.2161C5.00916 14.3848 4.97942 14.5857 5.026 14.776C5.414 16.217 6.509 17.279 7.929 17.676C9.142 18.014 10.415 18.132 11.719 17.811C12.859 17.531 13.839 16.922 14.423 16.058C15.023 15.17 15.166 14.066 14.689 12.954Z" fill="black" style="fill:black;fill-opacity:1;"/>
</svg>
