<svg width="20" height="20" viewBox="0 0 20 20" fill="none" xmlns="http://www.w3.org/2000/svg">
<path fill-rule="evenodd" clip-rule="evenodd" d="M10 5.5C9.53587 5.5 9.09075 5.31563 8.76256 4.98744C8.43437 4.65925 8.25 4.21413 8.25 3.75C8.25 3.28587 8.43437 2.84075 8.76256 2.51256C9.09075 2.18437 9.53587 2 10 2C10.4641 2 10.9092 2.18437 11.2374 2.51256C11.5656 2.84075 11.75 3.28587 11.75 3.75C11.75 4.21413 11.5656 4.65925 11.2374 4.98744C10.9092 5.31563 10.4641 5.5 10 5.5ZM10 11.75C9.77019 11.75 9.54262 11.7047 9.3303 11.6168C9.11798 11.5288 8.92507 11.3999 8.76256 11.2374C8.60006 11.0749 8.47116 10.882 8.38321 10.6697C8.29527 10.4574 8.25 10.2298 8.25 10C8.25 9.77019 8.29527 9.54262 8.38321 9.3303C8.47116 9.11798 8.60006 8.92507 8.76256 8.76256C8.92507 8.60006 9.11798 8.47116 9.3303 8.38321C9.54262 8.29527 9.77019 8.25 10 8.25C10.4641 8.25 10.9092 8.43437 11.2374 8.76256C11.5656 9.09075 11.75 9.53587 11.75 10C11.75 10.4641 11.5656 10.9092 11.2374 11.2374C10.9092 11.5656 10.4641 11.75 10 11.75ZM8.25 16.25C8.25 16.4798 8.29527 16.7074 8.38321 16.9197C8.47116 17.132 8.60006 17.3249 8.76256 17.4874C8.92507 17.6499 9.11798 17.7788 9.3303 17.8668C9.54262 17.9547 9.77019 18 10 18C10.2298 18 10.4574 17.9547 10.6697 17.8668C10.882 17.7788 11.0749 17.6499 11.2374 17.4874C11.3999 17.3249 11.5288 17.132 11.6168 16.9197C11.7047 16.7074 11.75 16.4798 11.75 16.25C11.75 15.7859 11.5656 15.3408 11.2374 15.0126C10.9092 14.6844 10.4641 14.5 10 14.5C9.53587 14.5 9.09075 14.6844 8.76256 15.0126C8.43437 15.3408 8.25 15.7859 8.25 16.25Z" fill="black" style="fill:black;fill-opacity:1;"/>
</svg>
