<svg width="20" height="20" viewBox="0 0 20 20" fill="none" xmlns="http://www.w3.org/2000/svg">
<path d="M12.1316 11.513C12.2054 11.541 12.2556 11.5632 12.3073 11.5779C13.5607 11.8998 14.7019 12.4416 15.6704 13.3156C16.255 13.8441 16.6964 14.4716 16.9607 15.2186C17.0478 15.4651 17.0758 15.7235 17.1053 15.9818C17.1614 16.4809 17.0227 16.9193 16.723 17.3076C16.4248 17.6914 16.0232 17.8981 15.5404 17.969C15.2791 18.0074 15.0208 17.9985 14.7609 17.9985C11.3624 18 7.96394 18 4.56543 18C4.21112 17.9336 3.87009 17.8435 3.5763 17.6088C3.16883 17.2825 2.95329 16.8529 2.88095 16.3509C2.85437 16.1649 2.88095 15.9656 2.9149 15.7766C2.95772 15.533 3.00496 15.285 3.09797 15.0577C3.41095 14.2855 3.91437 13.6537 4.5551 13.1178C5.29326 12.5006 6.13625 12.0873 7.03238 11.7654C7.25087 11.6872 7.48118 11.6385 7.70558 11.5765C7.7233 11.572 7.74249 11.5691 7.75873 11.5617C7.7853 11.5484 7.82959 11.5292 7.82812 11.5145C7.82664 11.4864 7.80302 11.4554 7.78087 11.4347C7.65981 11.3299 7.53137 11.234 7.41474 11.1262C6.54076 10.3083 5.99304 9.30143 5.70221 8.14989C5.62839 7.85905 5.56195 7.56526 5.56786 7.26113C5.56934 7.16222 5.53833 7.06183 5.53686 6.96291C5.53538 6.84776 5.54867 6.73113 5.55605 6.61597C5.56048 6.53034 5.56343 6.44472 5.57081 6.35909C5.6653 5.17064 6.03586 4.09734 6.87736 3.22187C7.45903 2.61805 8.17505 2.26226 8.98998 2.09395C9.37383 2.01571 9.76506 1.98913 10.1578 2.0039C10.8797 2.03047 11.5721 2.18106 12.2143 2.528C12.4992 2.68154 12.7428 2.88675 12.9805 3.10082C13.3481 3.43151 13.633 3.82422 13.856 4.26417C14.0981 4.74398 14.2516 5.25184 14.3535 5.77889C14.4022 6.03134 14.4096 6.28232 14.4288 6.53625C14.5011 7.46782 14.3107 8.34624 13.9416 9.19366C13.6419 9.88163 13.2329 10.4928 12.6985 11.0184C12.5494 11.1646 12.3841 11.293 12.2261 11.4288C12.201 11.451 12.1759 11.4731 12.1316 11.513ZM6.95118 6.79166C6.94232 6.79166 6.93199 6.79313 6.92313 6.79461C6.9497 7.05887 6.96446 7.32609 7.00875 7.5874C7.04714 7.81623 7.10176 8.04507 7.17853 8.26356C7.31731 8.6607 7.50037 9.03716 7.74397 9.38706C8.12633 9.93478 8.58695 10.3821 9.19815 10.6685C9.56427 10.8398 9.95107 10.8634 10.3334 10.8102C10.7173 10.7556 11.0568 10.5622 11.3683 10.329C11.8393 9.97611 12.1966 9.52288 12.483 9.01797C12.7207 8.60164 12.8727 8.14989 12.9761 7.67746C13.0779 7.20946 13.0676 6.73851 13.0248 6.27494C12.9879 5.87042 12.8904 5.46738 12.7148 5.08796C12.2881 4.1623 11.5942 3.5821 10.5815 3.43151C10.1489 3.36656 9.70748 3.36656 9.27049 3.45514C8.79659 3.5511 8.37879 3.74597 8.01413 4.07077C7.53728 4.49743 7.24201 5.02448 7.08848 5.64011C7.07224 5.70507 7.05895 5.77151 7.04714 5.83794C7.01466 6.00329 6.97185 6.16569 6.95413 6.33252C6.93789 6.48458 6.95118 6.63959 6.95118 6.79313V6.79166ZM9.98208 16.6078V16.6049C11.6828 16.6049 13.3835 16.6049 15.0828 16.6049C15.1596 16.6049 15.2363 16.6078 15.3131 16.6004C15.5818 16.5753 15.7309 16.3997 15.7161 16.128C15.6896 15.629 15.4829 15.2023 15.1787 14.82C14.7211 14.2442 14.135 13.8249 13.4839 13.4972C12.5538 13.0292 11.5617 12.7767 10.5283 12.6896C9.95845 12.6424 9.38712 12.6749 8.82316 12.7649C8.10714 12.8786 7.4177 13.0808 6.7563 13.3791C6.06243 13.6921 5.43942 14.1069 4.93156 14.6797C4.58315 15.0724 4.34399 15.5139 4.27755 16.0453C4.23621 16.3775 4.38975 16.5827 4.72488 16.6034C4.76474 16.6063 4.8046 16.6063 4.84446 16.6063C6.557 16.6063 8.26954 16.6063 9.98208 16.6063V16.6078Z" fill="black" style="fill:black;fill-opacity:1;"/>
</svg>
