<svg width="20" height="20" viewBox="0 0 20 20" fill="none" xmlns="http://www.w3.org/2000/svg">
<path fill-rule="evenodd" clip-rule="evenodd" d="M3.75 4.5C3.55109 4.5 3.36032 4.57902 3.21967 4.71967C3.07902 4.86032 3 5.05109 3 5.25V14.75C3 15.164 3.336 15.5 3.75 15.5H12.25C12.4489 15.5 12.6397 15.421 12.7803 15.2803C12.921 15.1397 13 14.9489 13 14.75V12.16C13 12.0285 13.0346 11.8992 13.1004 11.7853C13.1661 11.6713 13.2607 11.5767 13.3745 11.5108C13.4884 11.445 13.6176 11.4102 13.7492 11.4101C13.8807 11.4099 14.01 11.4444 14.124 11.51L17.5 13.453V6.547L14.124 8.491C14.0099 8.55664 13.8805 8.5911 13.7489 8.5909C13.6173 8.59071 13.488 8.55588 13.3741 8.48991C13.2602 8.42394 13.1657 8.32915 13.1 8.21507C13.0343 8.10099 12.9998 7.97163 13 7.84V5.25C13 5.05109 12.921 4.86032 12.7803 4.71967C12.6397 4.57902 12.4489 4.5 12.25 4.5H3.75ZM1.5 5.25C1.5 4.65326 1.73705 4.08097 2.15901 3.65901C2.58097 3.23705 3.15326 3 3.75 3H12.25C12.8467 3 13.419 3.23705 13.841 3.65901C14.2629 4.08097 14.5 4.65326 14.5 5.25V6.544L17.126 5.032C17.316 4.92252 17.5315 4.86496 17.7508 4.86511C17.9702 4.86526 18.1856 4.9231 18.3755 5.03284C18.5653 5.14257 18.723 5.30034 18.8326 5.49029C18.9423 5.68024 19 5.89569 19 6.115V13.885C19 14.1043 18.9423 14.3198 18.8326 14.5097C18.723 14.6997 18.5653 14.8574 18.3755 14.9672C18.1856 15.0769 17.9702 15.1347 17.7508 15.1349C17.5315 15.135 17.316 15.0775 17.126 14.968L14.5 13.456V14.75C14.5 15.3467 14.2629 15.919 13.841 16.341C13.419 16.7629 12.8467 17 12.25 17H3.75C3.15326 17 2.58097 16.7629 2.15901 16.341C1.73705 15.919 1.5 15.3467 1.5 14.75V5.25Z" fill="black" style="fill:black;fill-opacity:1;"/>
</svg>
